<svg width="640" height="640" xmlns="http://www.w3.org/2000/svg" preserveAspectRatio="xMidYMid meet" version="1.1">
  <title>Layer 1</title>
  <path id="bEP6Bzlc" d="m638.3,320.15c0,176.14 -143.01,319.15 -319.15,319.15c-176.14,0 -319.15,-143.01 -319.15,-319.15c0,-176.14 143.01,-319.15 319.15,-319.15c176.14,0 319.15,143.01 319.15,319.15z" fill="#dcbce9"/>
  <path id="a3bi0j2Xsf" d="m224.00001,391.31c0,0 0,0 0,0c0,-20.72 0,-32.22 0,-34.52c0,0 0,0 0,0c31.05,0 48.32,0 51.77,0c0,0 0,0 0,0c0,20.71 0,32.21 0,34.52c0,0 0,0 0,0c-31.08,0 -48.33,0 -51.77,0z"/>
  <path id="hkZU7zHll" d="m224.01,345.32c0,0 0,0 0,0c0,-20.7 0,-32.2 0,-34.52c0,0 0,0 0,0c31.05,0 48.32,0 51.77,0c0,0 0,0 0,0c0,20.72 0,32.21 0,34.52c0,0 0,0 0,0c-31.08,0 -48.33,0 -51.77,0z"/>
  <path id="a2rKF5UhtJ" d="m154.22,345.32c0,0 0,0 0,0c0,-20.7 0,-32.2 0,-34.52c0,0 0,0 0,0c31.07,0 48.32,0 51.77,0c0,0 0,0 0,0c0,20.72 0,32.21 0,34.52c0,0 0,0 0,0c-31.06,0 -48.33,0 -51.77,0z"/>
  <path id="b1N6lIn57D" d="m154.22,356.79c0,9.2 0,14.95 0,17.25c0,9.54 7.73,17.27 17.25,17.27c2.31,0 13.82,0 34.52,0c0,-2.31 0,-13.81 0,-34.52c-31.05,0 -48.32,0 -51.77,0z"/>
  <path id="a6sseYgide" d="m434.00001,345.32c0,0 0,0 0,0c0,-20.7 0,-32.2 0,-34.52c0,0 0,0 0,0c31.09,0 48.33,0 51.78,0c0,0 0,0 0,0c0,20.72 0,32.21 0,34.52c0,0 0,0 0,0c-31.07,0 -48.33,0 -51.78,0z"/>
  <path  id="bdKfgPeYR" d="m170.6594,241.73c-9.00307,0 -16.2944,7.73 -16.2944,17.26c0,5.39 0,18.79 0,40.27c66.24742,0 298.15452,0 331.27,0c0,-24.15 0,-37.58 0,-40.27c0,-9.53 -7.29133,-17.26 -16.2944,-17.26c-29.8566,0 -268.82461,0 -298.68121,0z"/>
  <path id="a35eWnq5SY" d="m434.00001,356.79c0,3.45 0,31.07 0,34.52c21.5,0 33,0 34.51,0c9.53,0 17.27,-7.73 17.27,-17.27c0,-1.14 0,-6.9 0,-17.25c-3.45,0 -20.69,0 -51.78,0z"/>
  <path id="svg_1" d="m294.00001,391.31c0,0 0,0 0,0c0,-20.72 0,-32.22 0,-34.52c0,0 0,0 0,0c31.05,0 48.32,0 51.77,0c0,0 0,0 0,0c0,20.71 0,32.21 0,34.52c0,0 0,0 0,0c-31.08,0 -48.33,0 -51.77,0z"/>
  <path id="svg_2" d="m294.00001,345.32c0,0 0,0 0,0c0,-20.7 0,-32.2 0,-34.52c0,0 0,0 0,0c31.05,0 48.32,0 51.77,0c0,0 0,0 0,0c0,20.72 0,32.21 0,34.52c0,0 0,0 0,0c-31.08,0 -48.33,0 -51.77,0z"/>
  <path id="svg_3" d="m363.99999,391.31c0,0 0,0 0,0c0,-20.72 0,-32.22 0,-34.52c0,0 0,0 0,0c31.05,0 48.32,0 51.77,0c0,0 0,0 0,0c0,20.71 0,32.21 0,34.52c0,0 0,0 0,0c-31.08,0 -48.33,0 -51.77,0z"/>
  <path id="svg_4" d="m363.99999,345.32c0,0 0,0 0,0c0,-20.7 0,-32.2 0,-34.52c0,0 0,0 0,0c31.05,0 48.32,0 51.77,0c0,0 0,0 0,0c0,20.72 0,32.21 0,34.52c0,0 0,0 0,0c-31.08,0 -48.33,0 -51.77,0z"/>
  <path  d="m278.43883,486.59885l30.65643,-26.14744l0,84.46367l21.80668,0l0,-83.64569l30.65894,26.15387l15.41909,-13.15402l-57.16827,-49.26922l-56.79172,48.44268l15.41884,13.15616z"/>
  <path id="svg_9"  d="m278.43884,159.3189l30.65644,26.18448l0,-84.58331l21.80668,0l0,83.76418l30.65895,-26.19092l15.41909,13.17266l-57.16828,49.33901l-56.79172,-48.5113l15.41884,-13.1748z"/>
  <rect  id="svg_12" height="18" width="105" y="534" x="267.5" fill="#000000"/>
  <rect  id="svg_13" height="18" width="105" y="86" x="267.5" fill="#000000"/>
</svg>