<svg width="640" height="640" xmlns="http://www.w3.org/2000/svg" preserveAspectRatio="xMidYMid meet" version="1.1">

 <g>
  <title>Layer 1</title>
  <path id="a2lrfIBbiO" d="m0,320.15c0,-176.14 143.01,-319.15 319.15,-319.15c176.14,0 319.15,143.01 319.15,319.15c0,176.14 -143.01,319.15 -319.15,319.15c-176.14,0 -319.15,-143.01 -319.15,-319.15z" fill="#fbb4ae"/>
  <g stroke="null" id="svg_1">
   <path stroke="null" id="a1AFHRFXgm" d="m386.83579,309.69767c0,-13.12624 -10.64907,-23.76618 -23.77532,-23.76618c-13.12624,0 -23.76618,10.63993 -23.76618,23.76618c0,13.13538 10.63993,23.77532 23.76618,23.77532c13.12624,0 23.77532,-10.63993 23.77532,-23.77532z"/>
   <path stroke="null" id="i7Jk6NiabP" d="m224.32085,436.49022c0,-13.13538 -10.64907,-23.77532 -23.77532,-23.77532c-13.12624,0 -23.76618,10.63993 -23.76618,23.77532c0,13.12624 10.63993,23.76618 23.76618,23.76618c13.12624,0 23.77532,-10.63993 23.77532,-23.76618z"/>
   <path stroke="null" id="beNFbEaQe" d="m457.78696,473.60201c0,-7.36751 -5.96897,-13.34562 -13.34562,-13.34562c-7.36751,0 -13.33648,5.97811 -13.33648,13.34562c0,7.37666 5.96897,13.34562 13.33648,13.34562c7.37666,0 13.34562,-5.96897 13.34562,-13.34562z"/>
   <path stroke="null" id="eojbkThVm" d="m416.99141,325.92266c-2.63256,-2.62342 -7.12985,-2.62342 -9.74413,0c-9.76241,9.74413 -21.00564,17.2579 -33.38234,22.48646c-12.74233,5.26512 -26.62726,8.26332 -40.87782,8.26332c-57.73352,0 -104.60773,-46.87421 -104.60773,-104.60773c0,-57.75181 46.87421,-104.99165 104.60773,-104.99165c57.76095,0 104.61687,46.87421 104.61687,104.60773c0,13.50102 -2.62342,26.62726 -7.49549,38.99481c-1.4991,3.37297 0.37477,7.50463 3.74774,8.99458c3.37297,1.50824 7.50463,-0.37477 8.99458,-3.7386c5.63076,-13.87579 8.63809,-28.8759 8.63809,-44.25079c0.35649,-65.23815 -52.8706,-118.47438 -118.50181,-118.47438c-65.61293,0 -118.47438,53.23623 -118.47438,118.8583c0,65.61293 53.23623,118.47438 118.47438,118.47438c16.13358,0 31.49932,-2.98905 46.12466,-9.36936c12.00192,-4.88121 22.87951,-12.00192 32.6145,-20.63087c1.82817,1.83731 10.95986,10.95986 27.37681,27.38595c-4.04025,4.04025 -6.2889,6.2889 -6.7368,6.74594c-1.13346,1.12432 -1.88301,2.99819 -1.88301,4.87207c0,1.87387 0.74955,3.75688 1.88301,4.87207c7.97081,7.98909 71.8744,71.88354 79.86349,79.86349c4.49729,4.50643 10.48454,6.75508 16.49007,6.75508c6.00553,0 12.00192,-2.24865 16.49921,-6.75508c8.99458,-8.99458 8.99458,-23.61992 0,-32.6145c-15.97818,-15.97818 -71.8744,-71.88354 -79.86349,-79.86349c-2.63256,-2.63256 -7.12985,-2.63256 -9.74413,0c-0.42962,0.42048 -2.55029,2.55029 -6.3803,6.3803c-19.35115,-19.35115 -30.09163,-30.11906 -32.23973,-32.25801zm118.48352,115.48533c3.7386,3.74774 3.7386,9.75327 0,13.1171c-3.74774,3.76602 -9.75327,3.76602 -13.1171,0c-5.00918,-4.9909 -30.00937,-29.99108 -74.99142,-74.98228c1.298,-1.30714 11.80082,-11.80996 13.1171,-13.12624c44.9912,44.9912 69.99139,69.99139 74.99142,74.99142z"/>
   <path stroke="null" id="a3728jtUtG" d="m318.91023,239.27667c0,-17.83377 -14.4608,-32.29458 -32.30372,-32.29458c-17.83377,0 -32.28543,14.4608 -32.28543,32.29458c0,17.84291 14.45166,32.29458 32.28543,32.29458c17.84291,0 32.30372,-14.45166 32.30372,-32.29458z"/>
   <path stroke="null" id="a1TZzk8WSc" d="m137.03501,131.47878c0,25.26527 0,151.58249 0,378.9608c220.98887,0 343.76858,0 368.31173,0c2.21208,0 3.9854,-1.77332 3.9854,-3.9854c0,-2.21208 -1.77332,-3.9854 -3.9854,-3.9854c-48.0351,0 -168.14569,0 -360.33178,0c0,-222.59765 0,-346.26403 0,-370.98999c0,-2.1938 -1.78246,-3.9854 -3.9854,-3.9854c-2.20294,0 -3.99455,1.7916 -3.99455,3.9854z"/>
   <path stroke="null" id="a3tNV73yO7" d="m396.81758,225.46486c0,-9.63444 -7.81542,-17.44986 -17.44986,-17.44986c-9.63444,0 -17.44072,7.81542 -17.44072,17.44986c0,9.63444 7.80627,17.459 17.44072,17.459c9.63444,0 17.44986,-7.82456 17.44986,-17.459z"/>
   <path stroke="null" id="b6OrPqGym" d="m351.55216,453.78468c0,-15.67653 -12.7149,-28.3823 -28.35488,-28.3823c-15.66739,0 -28.37316,12.70576 -28.37316,28.3823c0,15.66739 12.70576,28.34573 28.37316,28.34573c15.63997,0 28.35488,-12.67834 28.35488,-28.34573z"/>
   <path stroke="null" id="f3SyZCuPZL" d="m192.26394,347.96121c0,-9.63444 -7.81542,-17.44072 -17.44986,-17.44072c-9.64358,0 -17.44986,7.80627 -17.44986,17.44072c0,9.64358 7.80627,17.459 17.44986,17.459c9.63444,0 17.44986,-7.81542 17.44986,-17.459z"/>
  </g>
 </g>
</svg>