<svg width="640" height="640" xmlns="http://www.w3.org/2000/svg" version="1.1" preserveAspectRatio="xMidYMid meet">
 <g>
  <title>Layer 1</title>
  <path fill="#fdc086" d="m638.3,320.15c0,176.14 -143.01,319.15 -319.15,319.15c-176.14,0 -319.15,-143.01 -319.15,-319.15c0,-176.14 143.01,-319.15 319.15,-319.15c176.14,0 319.15,143.01 319.15,319.15z" id="bEP6Bzlc"/>
  <path d="m226.01,253.32c0,0 0,0 0,0c0,-20.7 0,-32.2 0,-34.52c0,0 0,0 0,0c31.05,0 48.32,0 51.77,0c0,0 0,0 0,0c0,20.72 0,32.21 0,34.52c0,0 0,0 0,0c-31.08,0 -48.33,0 -51.77,0z" id="hkZU7zHll"/>
  <path d="m156.22,253.32c0,0 0,0 0,0c0,-20.7 0,-32.2 0,-34.52c0,0 0,0 0,0c31.07,0 48.32,0 51.77,0c0,0 0,0 0,0c0,20.72 0,32.21 0,34.52c0,0 0,0 0,0c-31.06,0 -48.33,0 -51.77,0z" id="a2rKF5UhtJ"/>
  <path d="m156.22,313.79c0,9.2 0,14.95 0,17.25c0,9.54 7.73,17.27 17.25,17.27c2.31,0 13.82,0 34.52,0c0,-2.31 0,-13.81 0,-34.52c-31.05,0 -48.32,0 -51.77,0z" id="b1N6lIn57D"/>
  <path d="m436.00001,253.32c0,0 0,0 0,0c0,-20.7 0,-32.2 0,-34.52c0,0 0,0 0,0c31.09,0 48.33,0 51.78,0c0,0 0,0 0,0c0,20.72 0,32.21 0,34.52c0,0 0,0 0,0c-31.07,0 -48.33,0 -51.78,0z" id="a6sseYgide"/>
  <path d="m172.6594,149.73c-9.00307,0 -16.2944,7.73 -16.2944,17.26c0,5.39 0,18.79 0,40.27c66.24742,0 298.15452,0 331.27,0c0,-24.15 0,-37.58 0,-40.27c0,-9.53 -7.29133,-17.26 -16.2944,-17.26c-29.8566,0 -268.82461,0 -298.68121,0l0.00001,0z" id="bdKfgPeYR" stroke="null"/>
  <path d="m296.00001,253.32c0,0 0,0 0,0c0,-20.7 0,-32.2 0,-34.52c0,0 0,0 0,0c31.05,0 48.32,0 51.77,0c0,0 0,0 0,0c0,20.72 0,32.21 0,34.52c0,0 0,0 0,0c-31.08,0 -48.33,0 -51.77,0z" id="svg_2"/>
  <path d="m365.99999,253.32c0,0 0,0 0,0c0,-20.7 0,-32.2 0,-34.52c0,0 0,0 0,0c31.05,0 48.32,0 51.77,0c0,0 0,0 0,0c0,20.72 0,32.21 0,34.52c0,0 0,0 0,0c-31.08,0 -48.33,0 -51.77,0z" id="svg_4"/>
  <g stroke="null">
   <desc stroke="null">Created with Fabric.js 4.6.0</desc>
   <g stroke="null" id="svg_25" transform="matrix(0.659999 0 0 0.644761 287.88 353.872)">
    <path stroke=" none" fill-rule=" nonzero" fill=" rgb(0,0,0)" stroke-miterlimit="4" stroke-linejoin=" miter" stroke-dashoffset="0" stroke-dasharray=" none" stroke-linecap=" butt" d="m319.50056,200.88347c0.02344,12.254 -4.6875,24.047 -13.148,32.91c-8.457,8.8672 -20.016,14.125 -32.258,14.672c-12.242,0.55078 -24.227,-3.6484 -33.445,-11.719c-9.2227,-8.0742 -14.969,-19.395 -16.043,-31.602c-1.0781,-12.207 2.6055,-24.359 10.273,-33.918c7.668,-9.5586 18.73,-15.789 30.883,-17.387l0,-192.72c-0.01953,-1.6562 0.625,-3.2539 1.7891,-4.4336c1.1641,-1.1797 2.7539,-1.8398 4.4102,-1.8398c1.6563,0 3.2461,0.66016 4.4102,1.8398c1.1641,1.1797 1.8086,2.7773 1.7891,4.4336l0,192.72c11.43,1.4805 21.934,7.0703 29.539,15.73c7.6094,8.6562 11.805,19.789 11.801,31.312l-0.0006,0.002zm-148.82,-47.043l0,-192.72c0,-3.4258 -2.7773,-6.2031 -6.2031,-6.2031c-3.4258,0 -6.1992,2.7773 -6.1992,6.2031l0,192.72c-16.109,2.1211 -30.02,12.316 -36.887,27.039c-6.8633,14.727 -5.7383,31.934 2.9922,45.637c8.7266,13.703 23.848,22 40.094,22c16.246,0 31.367,-8.2969 40.094,-22c8.7305,-13.703 9.8555,-30.91 2.9922,-45.637c-6.8672,-14.723 -20.777,-24.918 -36.883,-27.039l-0.0001,0zm-107.48,0l-0.00391,-192.72c0,-3.4258 -2.7734,-6.2031 -6.1992,-6.2031c-3.4258,0 -6.1992,2.7773 -6.1992,6.2031l0,192.72c-11.215,1.4531 -21.539,6.8672 -29.105,15.27c-7.5664,8.3984 -11.879,19.23 -12.152,30.535c0,0.41406 -0.08203,0.82422 -0.08203,1.2383c0,0.41406 0.08203,0.82812 0.08203,1.2422c0.30469,12.172 5.2656,23.762 13.867,32.379c8.6016,8.6172 20.18,13.602 32.352,13.93c12.168,0.32422 24,-4.0312 33.051,-12.176c9.0469,-8.1445 14.625,-19.453 15.582,-31.59c0.95312,-12.137 -2.7891,-24.176 -10.453,-33.633c-7.6641,-9.4609 -18.668,-15.613 -30.742,-17.195l0.00231,-0.0005zm-58.203,-199.66l-0.00391,0c-3.1055,-1.4258 -6.7852,-0.10547 -8.2695,2.9766l-81.438,174.61l0.00391,0c-13.234,-4.168 -27.629,-2.3477 -39.41,4.9805c-11.781,7.3281 -19.773,19.438 -21.883,33.148c-2.1133,13.715 1.8711,27.664 10.902,38.195c9.0309,10.531 22.211,16.598 36.086,16.602c5.5547,-0.01953 11.066,-1 16.289,-2.8945c11.18,-4.0664 20.43,-12.176 25.926,-22.727c5.5,-10.551 6.8438,-22.777 3.7734,-34.273c-3.0703,-11.492 -10.332,-21.422 -20.359,-27.824l81.355,-174.53c1.4062,-3.1094 0.08984,-6.7695 -2.9766,-8.2656l0.0047,0.002zm-199.92,151.38c-0.55078,-0.58594 -1.2305,-1.0391 -1.9844,-1.3242c-1.5312,-0.66016 -3.2656,-0.66016 -4.793,0c-0.75781,0.28516 -1.4375,0.73828 -1.9883,1.3242c-1.7695,1.7773 -2.3008,4.4414 -1.3398,6.7578c0.95703,2.3164 3.2188,3.8281 5.7227,3.832c0.82812,0 1.6445,-0.17188 2.3984,-0.5c0.73828,-0.3125 1.4102,-0.76172 1.9844,-1.3242c1.1641,-1.1602 1.8164,-2.7344 1.8203,-4.375c0.00391,-0.82422 -0.16797,-1.6445 -0.49609,-2.3984c-0.31641,-0.73828 -0.76562,-1.4141 -1.3242,-1.9922l-0.00001,0zm183.96,88.215c-1.6484,-0.13281 -3.2773,0.39844 -4.5312,1.4805c-1.25,1.0781 -2.0156,2.6133 -2.1289,4.2617c-0.10938,1.6484 0.44531,3.2695 1.5391,4.5078c1.0977,1.2344 2.6406,1.9805 4.293,2.0703c0.125,0.07422 0.26953,0.10156 0.41406,0.08203c3.3086,-0.05859 5.9922,-2.6992 6.1016,-6.0039c0.10938,-3.3086 -2.3906,-6.1211 -5.6875,-6.3984l-0.00016,-0.00003zm-23.645,-2.4766c-1.625,-0.24219 -3.2812,0.1875 -4.5859,1.1797c-1.3086,0.99609 -2.1602,2.4766 -2.3633,4.1055c-0.24219,1.625 0.16797,3.2773 1.1484,4.5977c0.97656,1.3203 2.4375,2.1953 4.0625,2.4375l0,-0.08984c0.29688,0.07422 0.60547,0.10547 0.91016,0.08984c3.0781,0.01172 5.6875,-2.25 6.1211,-5.2969c0.46875,-3.3984 -1.8984,-6.5391 -5.293,-7.0234l0.00004,-0.0001zm-153.54,-67.297c-1.1719,1.1562 -1.8281,2.7344 -1.8281,4.3789c0,1.6484 0.65625,3.2227 1.8281,4.3828c1.1484,1.1836 2.7344,1.8398 4.3828,1.8164c1.6289,0.00391 3.1953,-0.61719 4.3828,-1.7344c1.1914,-1.1602 1.8711,-2.7461 1.8867,-4.4062c0.01563,-1.6641 -0.63281,-3.2617 -1.8047,-4.4453c-1.168,-1.1797 -2.7617,-1.8438 -4.4258,-1.8398c-1.6602,0 -3.2539,0.66406 -4.4219,1.8477l0.0001,-0.0001zm17.527,16.617c-1.5039,1.8672 -1.7969,4.4297 -0.75391,6.5898c1.043,2.1562 3.2383,3.5156 5.6367,3.4961c2.1406,-0.00391 4.1289,-1.1055 5.2656,-2.918c1.1367,-1.8164 1.2617,-4.0859 0.32812,-6.0156c-0.93359,-1.9258 -2.7891,-3.2383 -4.918,-3.4727c-2.1289,-0.23438 -4.2305,0.64062 -5.5586,2.3203l0.00009,0.0001z" vector-effect="non-scaling-stroke"/>
   </g>
  </g>
  <path d="m226.01,300.32c0,0 0,0 0,0c0,-20.7 0,-32.2 0,-34.52c0,0 0,0 0,0c31.05,0 48.32,0 51.77,0c0,0 0,0 0,0c0,20.72 0,32.21 0,34.52c0,0 0,0 0,0c-31.08,0 -48.33,0 -51.77,0z" id="svg_35"/>
  <path d="m156.22,300.32c0,0 0,0 0,0c0,-20.7 0,-32.2 0,-34.52c0,0 0,0 0,0c31.07,0 48.32,0 51.77,0c0,0 0,0 0,0c0,20.72 0,32.21 0,34.52c0,0 0,0 0,0c-31.06,0 -48.33,0 -51.77,0z" id="svg_36"/>
  <path d="m436.00001,300.32c0,0 0,0 0,0c0,-20.7 0,-32.2 0,-34.52c0,0 0,0 0,0c31.09,0 48.33,0 51.78,0c0,0 0,0 0,0c0,20.72 0,32.21 0,34.52c0,0 0,0 0,0c-31.07,0 -48.33,0 -51.78,0z" id="svg_37"/>
  <path d="m296.00001,300.32c0,0 0,0 0,0c0,-20.7 0,-32.2 0,-34.52c0,0 0,0 0,0c31.05,0 48.32,0 51.77,0c0,0 0,0 0,0c0,20.72 0,32.21 0,34.52c0,0 0,0 0,0c-31.08,0 -48.33,0 -51.77,0z" id="svg_38"/>
  <path d="m365.99999,300.32c0,0 0,0 0,0c0,-20.7 0,-32.2 0,-34.52c0,0 0,0 0,0c31.05,0 48.32,0 51.77,0c0,0 0,0 0,0c0,20.72 0,32.21 0,34.52c0,0 0,0 0,0c-31.08,0 -48.33,0 -51.77,0z" id="svg_39"/>
 </g>
</svg>