<svg width="640" height="640" xmlns="http://www.w3.org/2000/svg" version="1.1" preserveAspectRatio="xMidYMid meet" stroke="null">
  <path fill="#7ddd9c" d="m638.3,319.15c0,176.14 -143.01,319.15 -319.15,319.15c-176.14,0 -319.15,-143.01 -319.15,-319.15c0,-176.14 143.01,-319.15 319.15,-319.15c176.14,0 319.15,143.01 319.15,319.15z" id="a4eeWTOei" stroke="null"/>
  <path stroke="null" d="m175.99954,313.45632c3.62152,0 32.60797,0 36.22949,0c2.7715,0 2.7715,0 2.7715,-3.14294c0,-29.40075 0,-52.95848 0,-58.83721c0,-3.42151 0,-3.42151 2.95722,-3.42151c2.95722,0 26.60782,0 29.56503,0c0.77145,0 1.55004,0 2.85721,-0.16429c-0.77145,-0.93573 -1.23575,-1.52147 -1.70718,-2.05719c-4.28582,-4.67869 -38.55098,-42.1725 -42.8368,-46.85119c-3.35723,-3.6858 -6.77875,-7.31447 -10.06454,-11.11457c-1.28575,-1.47147 -2.07862,-1.42146 -3.36437,0c-9.90025,10.97171 -19.84336,21.90056 -29.82933,32.75797c-14.35751,15.77897 -22.32913,24.54348 -23.92918,26.29352c-0.17858,0.11429 -0.3,0.37144 -0.77859,0.98574c1.21432,0 2.02863,0.18572 2.86436,0.18572c10.00025,0 20.00765,0.1 29.98647,0c2.14292,0 2.54292,0.80002 2.54292,3.05722c0,19.69335 0,39.36529 0,59.03007c-0.00715,3.27866 -0.00715,3.27866 2.73579,3.27866z" id="dht8F2SLF"/>
  <path d="m127.56,128.4c0,0 0,0 0,0c0,25.23 0,39.23754 0,42.05c0,0 0,0 0,0c81.28195,0 126.45676,0 135.49,0c0,0 0,0 0,0c0,-25.23 0,-39.24667 0,-42.05c0,0 0,0 0,0c-81.29916,0 -126.46536,0 -135.49,0z" id="c3aqiZJ9XS" stroke="null"/>
  <path stroke="null" id="svg_1" d="m522.5376,308.26869c3.36727,-11.12086 3.63127,-22.94782 0.76426,-34.20742c-2.8647,-11.25722 -8.7518,-21.5214 -17.02397,-29.67797c-12.57752,-11.75997 -28.07725,-19.93491 -44.88364,-23.67763c-16.80876,-3.74243 -34.30939,-2.91568 -50.68951,2.39462c-20.77796,6.54695 -36.79229,23.2235 -42.49145,44.24691c-15.27325,-13.93458 -39.1406,-13.61503 -57.52104,-6.22503c-19.24956,7.73267 -36.31029,24.92798 -34.34911,47.02564l-0.00232,0c-16.87813,2.21166 -31.45655,12.88759 -38.65861,28.3138c-7.20028,15.42384 -6.02583,33.45745 3.11714,47.81533c9.14308,14.35847 24.98608,23.05217 42.00708,23.05217l38.73035,0l0,-49.80022c0.00464,-4.40015 1.7554,-8.61959 4.86791,-11.7321s7.3319,-4.86329 11.7321,-4.86791l121.73783,0c4.40015,0.00463 8.61959,1.7554 11.7321,4.86791s4.86329,7.3319 4.86791,11.7321l0.00232,49.80022l38.73272,0c16.91963,0 32.6814,-8.58935 41.84997,-22.8091c9.17095,-14.21678 10.4954,-32.11877 3.51779,-47.53313c-6.97796,-15.41198 -21.30382,-26.2293 -38.03789,-28.71872l-0.00196,0.00053z"/>
  
   <path stroke="null" d="m382.37026,506.66937c0,0 0,0 0,0c0,-13.6167 0,-21.17424 0,-22.68575c0,0 0,0 0,0c20.40534,0 31.75479,0 34.02205,0c0,0 0,0 0,0c0,13.61013 0,21.16767 0,22.68575c0,0 0,0 0,0c-20.42505,0 -31.76136,0 -34.02205,0z" id="b6z1qSYr5"/>
   <path stroke="null" d="m382.37026,468.55968c0,0 0,0 0,0c0,-13.60356 0,-21.1611 0,-22.68575c0,0 0,0 0,0c20.40534,0 31.75479,0 34.02205,0c0,0 0,0 0,0c0,13.6167 0,21.16767 0,22.68575c0,0 0,0 0,0c-20.42505,0 -31.76136,0 -34.02205,0z" id="c2AnAF0HgI"/>
   <path stroke="null" d="m382.37026,430.75229c0,0 0,0 0,0c0,-13.6167 0,-21.17424 0,-22.68575c0,0 0,0 0,0c20.40534,0 31.75479,0 34.02205,0c0,0 0,0 0,0c0,13.61013 0,21.16767 0,22.68575c0,0 0,0 0,0c-20.42505,0 -31.76136,0 -34.02205,0z" id="b1GEdEKhtA"/>
   <path stroke="null" d="m333.22,468.55968c0,0 0,0 0,0c0,-13.60356 0,-21.1611 0,-22.68575c0,0 0,0 0,0c20.41849,0 31.75479,0 34.02205,0c0,0 0,0 0,0c0,13.6167 0,21.16767 0,22.68575c0,0 0,0 0,0c-20.41192,0 -31.76136,0 -34.02205,0z" id="b1dLYvItOc"/>
   <path stroke="null" d="m333.22,430.75229c0,0 0,0 0,0c0,-13.6167 0,-21.17424 0,-22.68575c0,0 0,0 0,0c20.41849,0 31.75479,0 34.02205,0c0,0 0,0 0,0c0,13.61013 0,21.16767 0,22.68575c0,0 0,0 0,0c-20.41192,0 -31.76136,0 -34.02205,0z" id="eltAYtqzm"/>
   <path stroke="null" d="m333.22,483.98362c0,6.04603 0,9.82479 0,11.3363c0,6.26946 5.07998,11.34944 11.3363,11.34944c1.51808,0 9.08218,0 22.68575,0c0,-1.51808 0,-9.07561 0,-22.68575c-20.40534,0 -31.75479,0 -34.02205,0l-0.00001,0z" id="ft2Hr2taP"/>
   <path stroke="null" d="m431.46138,468.55968c0,0 0,0 0,0c0,-13.60356 0,-21.1611 0,-22.68575c0,0 0,0 0,0c20.43163,0 31.76136,0 34.02862,0c0,0 0,0 0,0c0,13.6167 0,21.16767 0,22.68575c0,0 0,0 0,0c-20.41849,0 -31.76136,0 -34.02862,0z" id="a2ZRL8pld"/>
   <path stroke="null" d="m431.46138,430.75229c0,0 0,0 0,0c0,-13.6167 0,-21.17424 0,-22.68575c0,0 0,0 0,0c20.43163,0 31.76136,0 34.02862,0c0,0 0,0 0,0c0,13.61013 0,21.16767 0,22.68575c0,0 0,0 0,0c-20.41849,0 -31.76136,0 -34.02862,0z" id="c3X5cTAjvM"/>
   <path stroke="null" d="m339.72606,355.13752c-3.59475,0 -6.50605,5.07998 -6.50605,11.34287c0,3.54218 0,12.34835 0,26.46451c26.45137,0 119.04759,0 132.26999,0c0,-15.87082 0,-24.69671 0,-26.46451c0,-6.2629 -2.91129,-11.34287 -6.50605,-11.34287c-11.92119,0 -107.33671,0 -119.25789,0z" id="a8jrEKEPbc"/>
   <path stroke="null" d="m431.46138,483.98362c0,2.26726 0,20.41849 0,22.68575c14.1293,0 21.68684,0 22.67918,0c6.2629,0 11.34944,-5.07998 11.34944,-11.34944c0,-0.74918 0,-4.53452 0,-11.3363c-2.26726,0 -13.59699,0 -34.02862,0z" id="cD0pYnSfx"/>
  
</svg>