<svg width="640" height="640" xmlns="http://www.w3.org/2000/svg" preserveAspectRatio="xMidYMid meet" version="1.1">
 <g>
  <title>Layer 1</title>
  <path id="bEP6Bzlc" d="m640.3,318.15c0,176.14 -143.01,319.15 -319.15,319.15c-176.14,0 -319.15,-143.01 -319.15,-319.15c0,-176.14 143.01,-319.15 319.15,-319.15c176.14,0 319.15,143.01 319.15,319.15z" fill="#fdc086"/>
  <metadata stroke="null" id="svg_17">image/svg+xml</metadata>

  <g stroke="null" id="svg_18">
   <path stroke="null" d="m229.53631,395.63377c0,9.28771 -7.53088,16.81859 -16.81859,16.81859s-16.81859,-7.53088 -16.81859,-16.81859s7.53088,-16.81859 16.81859,-16.81859s16.81859,7.53088 16.81859,16.81859"/>
   <path stroke="null" d="m246.3549,333.96561c0,9.28771 -7.53088,16.81859 -16.81859,16.81859s-16.81859,-7.53088 -16.81859,-16.81859s7.53088,-16.81859 16.81859,-16.81859s16.81859,7.53088 16.81859,16.81859"/>
   <path stroke="null" d="m464.99655,233.05408c0,9.28771 -7.53088,16.81859 -16.81859,16.81859s-16.81859,-7.53088 -16.81859,-16.81859s7.53088,-16.81859 16.81859,-16.81859s16.81859,7.53088 16.81859,16.81859"/>
   <path stroke="null" d="m296.81066,289.11604c0,9.28771 -7.53088,16.81859 -16.81859,16.81859s-16.81859,-7.53088 -16.81859,-16.81859s7.53088,-16.81859 16.81859,-16.81859s16.81859,7.53088 16.81859,16.81859"/>
   <path stroke="null" d="m369.69121,384.42138c0,9.28771 -7.53088,16.81859 -16.81859,16.81859s-16.81859,-7.53088 -16.81859,-16.81859s7.53088,-16.81859 16.81859,-16.81859s16.81859,7.53088 16.81859,16.81859"/>
   <path stroke="null" d="m397.72219,311.54083c0,9.28771 -7.53088,16.81859 -16.81859,16.81859s-16.81859,-7.53088 -16.81859,-16.81859s7.53088,-16.81859 16.81859,-16.81859s16.81859,7.53088 16.81859,16.81859"/>
   <path stroke="null" d="m386.5098,216.23549c0,9.28771 -7.53088,16.81859 -16.81859,16.81859s-16.81859,-7.53088 -16.81859,-16.81859s7.53088,-16.81859 16.81859,-16.81859s16.81859,7.53088 16.81859,16.81859"/>
   <path stroke="null" d="m483.45535,156.20883l-5.65124,5.65124c-2.18994,-1.05364 -4.61259,-1.68686 -7.20284,-1.68686c-9.27297,0 -16.81859,7.54562 -16.81859,16.81859c0,2.59038 0.6332,5.01303 1.68686,7.20284l-13.34723,13.34723c0.27531,-1.20383 0.448,-2.4427 0.448,-3.73161c0,-9.27297 -7.54562,-16.81859 -16.81859,-16.81859s-16.81859,7.54562 -16.81859,16.81859s7.54562,16.81859 16.81859,16.81859c1.28891,0 2.52779,-0.17269 3.73411,-0.453l-24.55962,24.55962c-2.19244,-1.04865 -4.61508,-1.68186 -7.2054,-1.68186c-9.27297,0 -16.81859,7.54562 -16.81859,16.81859c0,2.59038 0.6332,5.01303 1.68686,7.20284l-18.71829,18.71829c-1.04865,-8.26642 -8.05114,-14.70874 -16.60587,-14.70874c-9.27297,0 -16.81859,7.54562 -16.81859,16.81859c0,8.55474 6.44232,15.55703 14.7113,16.60587l-18.71829,18.71829c-2.19244,-1.05364 -4.61508,-1.68686 -7.2054,-1.68686c-9.27297,0 -16.81859,7.54562 -16.81859,16.81859c0,2.59038 0.6382,5.01303 1.68686,7.20284l-21.13055,21.12351c-0.96856,-0.16518 -1.95967,-0.29533 -2.98077,-0.29533c-9.27297,0 -16.81859,7.54562 -16.81859,16.81859c0,1.02116 0.13014,2.01221 0.30284,2.98833l-49.15449,49.15449c-2.19744,-1.05364 -4.62008,-1.68686 -7.21053,-1.68686c-9.27297,0 -16.81859,7.54562 -16.81859,16.81859c0,2.59038 0.6332,5.01303 1.68686,7.20284l-11.25724,11.25724l7.9262,7.9262l11.25724,-11.25724c2.19244,1.05614 4.61508,1.68936 7.2054,1.68936c9.27297,0 16.81859,-7.54562 16.81859,-16.81859c0,-2.59038 -0.6332,-5.01303 -1.68686,-7.20284l47.13177,-47.13177c2.90824,2.38766 6.57495,3.8793 10.61653,3.8793c9.27297,0 16.81859,-7.54562 16.81859,-16.81859c0,-4.04697 -1.49163,-7.71349 -3.88429,-10.6191l19.10079,-19.10079c2.19494,1.05115 4.61758,1.68936 7.20797,1.68936c9.27297,0 16.81859,-7.54562 16.81859,-16.81859c0,-2.59038 -0.6332,-5.01303 -1.68686,-7.20284l56.14718,-56.14718c2.19494,1.04865 4.61758,1.68186 7.20797,1.68186c9.27297,0 16.81859,-7.54562 16.81859,-16.81859c0,-2.59038 -0.6332,-5.01303 -1.68686,-7.20284l50.54098,-50.54098c2.19494,1.04865 4.61758,1.68186 7.20797,1.68186c9.27297,0 16.81859,-7.54562 16.81859,-16.81859c0,-2.59038 -0.6332,-5.01303 -1.68686,-7.20284l5.65124,-5.65124l-7.92824,-7.92981z"/>
   <rect stroke="null" id="svg_14" height="368.00002" width="10.82353" y="122" x="147.99998" fill="#000000"/>
   <rect stroke="null" transform="matrix(0 1.08235 -1.08235 0 819.641 114.292)" id="svg_16" height="340" width="10" y="280.5377" x="345.12118" fill="#000000"/>
  </g>
 </g>

</svg>