<svg width="640" height="640" xmlns="http://www.w3.org/2000/svg" preserveAspectRatio="xMidYMid meet" version="1.1">

 <g>
  <title>Layer 1</title>
  <path id="a17KJ4PcoM" d="m638.3,319.15c0,176.14 -143.01,319.15 -319.15,319.15c-176.14,0 -319.15,-143.01 -319.15,-319.15c0,-176.14 143.01,-319.15 319.15,-319.15c176.14,0 319.15,143.01 319.15,319.15z" fill="#dcbce9"/>
  <path stroke="null" id="a28fLqvFGg" d="m428.16807,397.51691c0,0 0,0 0,0c0,-14.08905 0,-21.92032 0,-23.48477c0,0 0,0 0,0c21.13358,0 32.88952,0 35.23167,0c0,0 0,0 0,0c0,14.09809 0,21.92936 0,23.48477c0,0 0,0 0,0c-21.15166,0 -32.88952,0 -35.23167,0z"/>
  <path stroke="null" id="cdF2UMOHy" d="m478.86333,374.03214c0,2.35119 0,21.14262 0,23.48477c14.61355,0 22.44482,0 23.48477,0c6.47481,0 11.7469,-5.254 11.7469,-11.7469c0,-0.7777 0,-4.69334 0,-11.73786c-2.34215,0 -14.08905,0 -35.23167,0z"/>
  <path stroke="null" id="dtklgk9Hy" d="m428.16807,358.47812c0,0 0,0 0,0c0,-14.08905 0,-21.92032 0,-23.49381c0,0 0,0 0,0c21.13358,0 32.88952,0 35.23167,0c0,0 0,0 0,0c0,14.09809 0,21.92032 0,23.49381c0,0 0,0 0,0c-21.15166,0 -32.88952,0 -35.23167,0z"/>
  <path stroke="null" id="ahO8joFR5" d="m384.00188,241.02716c-3.71669,0 -6.71898,5.26305 -6.71898,11.75595c0,3.66243 0,12.77781 0,27.4004c27.35519,0 123.13903,0 136.8121,0c0,-16.44024 0,-25.57371 0,-27.4004c0,-6.4929 -3.02037,-11.75595 -6.72802,-11.75595c-12.3347,0 -111.02136,0 -123.36511,0z"/>
  <path stroke="null" id="auoTmzL53" d="m377.2829,374.03214c0,6.25778 0,10.17342 0,11.73786c0,6.4929 5.254,11.7469 11.72882,11.7469c1.57349,0 9.39572,0 23.48477,0c0,-1.5554 0,-9.38667 0,-23.48477c-21.11549,0 -32.87144,0 -35.21358,0z"/>
  <path stroke="null" id="b1ktgjW4sa" d="m428.16807,319.33081c0,0 0,0 0,0c0,-14.09809 0,-21.92936 0,-23.49381c0,0 0,0 0,0c21.13358,0 32.88952,0 35.23167,0c0,0 0,0 0,0c0,14.10714 0,21.92032 0,23.49381c0,0 0,0 0,0c-21.15166,0 -32.88952,0 -35.23167,0z"/>
  <path stroke="null" id="a6RX56Q59" d="m377.2829,319.33081c0,0 0,0 0,0c0,-14.09809 0,-21.92936 0,-23.49381c0,0 0,0 0,0c21.12453,0 32.87144,0 35.21358,0c0,0 0,0 0,0c0,14.10714 0,21.92032 0,23.49381c0,0 0,0 0,0c-21.13358,0 -32.88952,0 -35.21358,0z"/>
  <path stroke="null" id="e3JeaGjiEa" d="m478.86333,319.33081c0,0 0,0 0,0c0,-14.09809 0,-21.92936 0,-23.49381c0,0 0,0 0,0c21.14262,0 32.88952,0 35.23167,0c0,0 0,0 0,0c0,14.10714 0,21.92032 0,23.49381c0,0 0,0 0,0c-21.14262,0 -32.88952,0 -35.23167,0z"/>
  <path stroke="null" id="a2XHi62pvL" d="m478.86333,358.47812c0,0 0,0 0,0c0,-14.08905 0,-21.92032 0,-23.49381c0,0 0,0 0,0c21.14262,0 32.88952,0 35.23167,0c0,0 0,0 0,0c0,14.09809 0,21.92032 0,23.49381c0,0 0,0 0,0c-21.14262,0 -32.88952,0 -35.23167,0z"/>
  <path stroke="null" id="imUswyLRp" d="m377.2829,358.47812c0,0 0,0 0,0c0,-14.08905 0,-21.92032 0,-23.49381c0,0 0,0 0,0c21.12453,0 32.87144,0 35.21358,0c0,0 0,0 0,0c0,14.09809 0,21.92032 0,23.49381c0,0 0,0 0,0c-21.13358,0 -32.88952,0 -35.21358,0z"/>
  <path stroke="null" id="a1vMrVCWCz" d="m290.99425,485.61348c0,3.96085 0,17.84191 0,19.82234c53.53478,0 96.16365,-37.67329 96.16365,-84.25397c-1.98947,0 -17.84191,0 -19.83138,0c0,35.68382 -33.69435,64.43164 -76.33227,64.43164z"/>
  <path stroke="null" id="bOE8OCzwp" d="m290.99425,155.37976c0,-3.96989 0,-17.84191 0,-19.83138c53.53478,0 96.16365,37.67329 96.16365,84.26302c-1.98947,0 -17.84191,0 -19.83138,0c0,-35.68382 -33.69435,-64.43164 -76.33227,-64.43164z"/>
  <path stroke="null" id="f4Egbjzobj" d="m224.84443,247.48309c0,2.35119 0,21.14262 0,23.48477c14.62259,0 22.45386,0 23.48477,0c6.48386,0 11.7469,-5.254 11.7469,-11.7469c0,-0.7777 0,-4.69334 0,-11.73786c-2.34215,0 -14.08905,0 -35.23167,0z"/>
  <path stroke="null" id="nVPQty3O2" d="m178.13715,114.4781c-2.34215,0 -4.23214,5.26305 -4.23214,11.75595c0,3.66243 0,12.77781 0,27.4004c17.22698,0 77.56213,0 86.1711,0c0,-16.44024 0,-25.57371 0,-27.4004c0,-6.4929 -1.89904,-11.75595 -4.23214,-11.75595c-7.77701,0 -69.9298,0 -77.70681,0z"/>
  <path stroke="null" id="bnKvsk6w1" d="m173.90501,247.48309c0,6.25778 0,10.17342 0,11.73786c0,6.4929 5.254,11.7469 11.72882,11.7469c1.57349,0 9.40476,0 23.49381,0c0,-1.5554 0,-9.38667 0,-23.48477c-21.12453,0 -32.88048,0 -35.22263,0z"/>
  <path stroke="null" id="b2EpNwEohC" d="m173.90501,192.78176c0,0 0,0 0,0c0,-14.09809 0,-21.92936 0,-23.48477c0,0 0,0 0,0c21.13358,0 32.87144,0 35.22263,0c0,0 0,0 0,0c0,14.09809 0,21.91128 0,23.48477c0,0 0,0 0,0c-21.13358,0 -32.88952,0 -35.22263,0z"/>
  <path stroke="null" id="bmIrvDK4L" d="m224.84443,192.78176c0,0 0,0 0,0c0,-14.09809 0,-21.92936 0,-23.48477c0,0 0,0 0,0c21.14262,0 32.88952,0 35.23167,0c0,0 0,0 0,0c0,14.09809 0,21.91128 0,23.48477c0,0 0,0 0,0c-21.14262,0 -32.88952,0 -35.23167,0z"/>
  <path stroke="null" id="a1iibK75jY" d="m224.84443,231.92906c0,0 0,0 0,0c0,-14.08905 0,-21.92032 0,-23.49381c0,0 0,0 0,0c21.14262,0 32.88952,0 35.23167,0c0,0 0,0 0,0c0,14.10714 0,21.92032 0,23.49381c0,0 0,0 0,0c-21.14262,0 -32.88952,0 -35.23167,0z"/>
  <path stroke="null" id="b18ePtGhxM" d="m173.90501,231.92906c0,0 0,0 0,0c0,-14.08905 0,-21.92032 0,-23.49381c0,0 0,0 0,0c21.13358,0 32.87144,0 35.22263,0c0,0 0,0 0,0c0,14.10714 0,21.92032 0,23.49381c0,0 0,0 0,0c-21.13358,0 -32.88952,0 -35.22263,0z"/>
  <path stroke="null" id="a7Apafsvt" d="m224.84443,500.03713c0,2.35119 0,21.14262 0,23.48477c14.62259,0 22.45386,0 23.48477,0c6.48386,0 11.7469,-5.254 11.7469,-11.7469c0,-0.78674 0,-4.70238 0,-11.73786c-2.34215,0 -14.08905,0 -35.23167,0z"/>
  <path stroke="null" id="a2wns0rkoR" d="m178.13715,367.03214c-2.34215,0 -4.23214,5.26305 -4.23214,11.75595c0,3.65339 0,12.77781 0,27.4004c17.22698,0 77.56213,0 86.1711,0c0,-16.44928 0,-25.58275 0,-27.4004c0,-6.4929 -1.89904,-11.75595 -4.23214,-11.75595c-7.77701,0 -69.9298,0 -77.70681,0z"/>
  <path stroke="null" id="erX8QN1hK" d="m173.90501,500.03713c0,6.25778 0,10.17342 0,11.73786c0,6.4929 5.254,11.7469 11.72882,11.7469c1.57349,0 9.40476,0 23.49381,0c0,-1.56445 0,-9.38667 0,-23.48477c-21.12453,0 -32.88048,0 -35.22263,0z"/>
  <path stroke="null" id="g8Vsg5pGp" d="m173.90501,445.3358c0,0 0,0 0,0c0,-14.09809 0,-21.92936 0,-23.49381c0,0 0,0 0,0c21.13358,0 32.87144,0 35.22263,0c0,0 0,0 0,0c0,14.10714 0,21.92032 0,23.49381c0,0 0,0 0,0c-21.13358,0 -32.88952,0 -35.22263,0z"/>
  <path stroke="null" id="a1ycuLBnD4" d="m224.84443,445.3358c0,0 0,0 0,0c0,-14.09809 0,-21.92936 0,-23.49381c0,0 0,0 0,0c21.14262,0 32.88952,0 35.23167,0c0,0 0,0 0,0c0,14.10714 0,21.92032 0,23.49381c0,0 0,0 0,0c-21.14262,0 -32.88952,0 -35.23167,0z"/>
  <path stroke="null" id="e1MXq1M76j" d="m224.84443,484.4831c0,0 0,0 0,0c0,-14.08905 0,-21.92032 0,-23.49381c0,0 0,0 0,0c21.14262,0 32.88952,0 35.23167,0c0,0 0,0 0,0c0,14.09809 0,21.92032 0,23.49381c0,0 0,0 0,0c-21.14262,0 -32.88952,0 -35.23167,0z"/>
  <path stroke="null" id="a2ITXmt4m5" d="m173.90501,484.4831c0,0 0,0 0,0c0,-14.08905 0,-21.92032 0,-23.49381c0,0 0,0 0,0c21.13358,0 32.87144,0 35.22263,0c0,0 0,0 0,0c0,14.09809 0,21.92032 0,23.49381c0,0 0,0 0,0c-21.13358,0 -32.88952,0 -35.22263,0z"/>
 </g>
</svg>