<svg width="640" height="640" xmlns="http://www.w3.org/2000/svg" version="1.1" preserveAspectRatio="xMidYMid meet">
 <title>Layer 1</title>

 <g>
  <title>Layer 1</title>
  <path fill="#fdc086" d="m638.70816,319.15c0,176.14 -143.01,319.15 -319.15,319.15c-176.14,0 -319.15,-143.01 -319.15,-319.15c0,-176.14 143.01,-319.15 319.15,-319.15c176.14,0 319.15,143.01 319.15,319.15z" id="bEP6Bzlc"/>
  <path stroke="null" d="m295.22,330.79c0,0 0,0 0,0c0,-14.11745 0,-21.95291 0,-23.52001c0,0 0,0 0,0c31.07,0 48.32,0 51.77,0c0,0 0,0 0,0c0,14.11064 0,21.9461 0,23.52001c0,0 0,0 0,0c-31.06,0 -48.33,0 -51.77,0z" id="a1xIAt3K6"/>
  <path stroke="null" d="m303.12,252.73c-5.47,0 -9.9,5.4458 -9.9,12.15971c0,3.79727 0,13.23759 0,28.3703c40.25,0 181.15,0 201.27,0c0,-17.01372 0,-26.47519 0,-28.3703c0,-6.7139 -4.43,-12.15971 -9.9,-12.15971c-18.14,0 -163.33,0 -181.47,0z" id="bdKfgPeYR"/>
  <g id="svg_10">
   <path d="m214.08705,159.56001c14.75243,14.76078 22.95564,22.95564 24.59295,24.59295c0,0 0,0 0,0c-73.52823,73.52823 -114.37725,114.37725 -122.5554,122.54705c0,0 0,0 0,0c-14.75243,-14.75243 -22.94729,-22.94729 -24.58459,-24.58459c0,0 0,0 0,0c73.52823,-73.53658 114.37725,-114.3856 122.54705,-122.5554c0,0 0,0 0,0l-0.00001,-0.00001z" id="a1vEowyF44" stroke="null"/>
   <path d="m263.33,111.55082l23.35918,23.35918l11.27082,-16.92211l-17.70789,-17.70789l-16.92211,11.27082z" id="aAsujmJQT" stroke="null"/>
   <path d="m305.3884,245.99c-0.66526,-1.24524 2.14078,-8.78488 2.37107,-10.29452c1.39876,-8.97252 1.35611,-18.18385 0.0597,-27.1649c-5.25387,-36.49564 -32.29084,-65.18724 -58.92694,-88.69319c-24.32474,-21.45046 -57.31496,-36.75151 -90.53546,-28.72571c-0.98084,0.23028 -5.37328,2.13225 -6.10677,1.73992c37.33148,20.23082 72.26632,47.66012 100.88115,79.67803c19.89818,22.26925 37.45089,46.63664 51.86492,72.74394c0.13646,0.23881 0.2644,0.47762 0.39233,0.71644l0,-0.00001z" id="c1oHuDfW3A" stroke="null"/>
   <path d="m257.85,252.24c1.25,1.13 2.82,1.69 4.38,1.69c1.78,0 3.56,-0.73 4.85,-2.16c2.41,-2.67 2.2,-6.8 -0.47,-9.22c-2.25,-2.03 -20.25,-18.29 -22.49,-20.32c-2.67,-2.41 -6.81,-2.21 -9.23,0.47c-2.41,2.68 -2.21,6.81 0.47,9.23c2.25,2.03 20.24,18.28 22.49,20.31z" id="bf2Ksollw"/>
   <path d="m347.17,238.89c1.04,-2.69 9.36,-24.18 10.4,-26.87c1.3,-3.36 -0.38,-7.14 -3.74,-8.44c-3.34,-1.3 -7.14,0.37 -8.45,3.73c-1.04,2.69 -9.35,24.18 -10.39,26.86c-1.3,3.37 0.37,7.15 3.73,8.45c0.78,0.3 1.57,0.44 2.36,0.44c2.62,0 5.09,-1.59 6.09,-4.17z" id="aozlura"/>
   <path d="m223.8,287.26c-3.6,0.25 -6.3,3.37 -6.05,6.97c0.24,3.44 3.11,6.07 6.5,6.07c0.16,0 0.32,0 0.47,-0.02c3.23,-0.22 29.09,-2.05 32.32,-2.28c3.6,-0.25 6.31,-3.38 6.05,-6.97c-0.25,-3.61 -3.49,-6.37 -6.97,-6.06c-3.23,0.23 -29.08,2.06 -32.32,2.29z" id="c8ci4yayJ"/>
  </g>
  <path stroke="null" id="svg_1" d="m348.5467,443.42526c0,4.61863 -3.74499,8.36362 -8.36362,8.36362s-8.36362,-3.74499 -8.36362,-8.36362s3.74499,-8.36362 8.36362,-8.36362s8.36362,3.74499 8.36362,8.36362"/>
  <path stroke="null" id="svg_2" d="m356.91031,412.75868c0,4.61863 -3.74499,8.36362 -8.36362,8.36362s-8.36362,-3.74499 -8.36362,-8.36362s3.74499,-8.36362 8.36362,-8.36362s8.36362,3.74499 8.36362,8.36362"/>
  <path stroke="null" id="svg_4" d="m382.00115,390.4557c0,4.61863 -3.74499,8.36362 -8.36362,8.36362s-8.36362,-3.74499 -8.36362,-8.36362s3.74499,-8.36362 8.36362,-8.36362s8.36362,3.74499 8.36362,8.36362"/>
  <path stroke="null" id="svg_5" d="m418.24348,437.84952c0,4.61863 -3.74499,8.36362 -8.36362,8.36362s-8.36362,-3.74499 -8.36362,-8.36362s3.74499,-8.36362 8.36362,-8.36362s8.36362,3.74499 8.36362,8.36362"/>
  <path stroke="null" id="svg_6" d="m432.18284,401.60719c0,4.61863 -3.74499,8.36362 -8.36362,8.36362s-8.36362,-3.74499 -8.36362,-8.36362s3.74499,-8.36362 8.36362,-8.36362s8.36362,3.74499 8.36362,8.36362"/>
  <path stroke="null" id="svg_8" d="m474.81657,323.36308l-2.81027,2.81027c-1.08902,-0.52396 -2.29377,-0.83885 -3.58186,-0.83885c-4.6113,0 -8.36362,3.75232 -8.36362,8.36362c0,1.28815 0.31488,2.4929 0.83885,3.58186l-6.63736,6.63736c0.13691,-0.59865 0.22278,-1.21472 0.22278,-1.85567c0,-4.6113 -3.75232,-8.36362 -8.36362,-8.36362s-8.36362,3.75232 -8.36362,8.36362s3.75232,8.36362 8.36362,8.36362c0.64095,0 1.25703,-0.08588 1.85691,-0.22527l-12.21311,12.21311c-1.09027,-0.52148 -2.29501,-0.83636 -3.58313,-0.83636c-4.6113,0 -8.36362,3.75232 -8.36362,8.36362c0,1.28815 0.31488,2.4929 0.83885,3.58186l-9.30831,9.30831c-0.52148,-4.11076 -4.0037,-7.31442 -8.25783,-7.31442c-4.6113,0 -8.36362,3.75232 -8.36362,8.36362c0,4.25414 3.20366,7.73626 7.31569,8.25783l-9.30831,9.30831c-1.09027,-0.52396 -2.29501,-0.83885 -3.58313,-0.83885c-4.6113,0 -8.36362,3.75232 -8.36362,8.36362c0,1.28815 0.31737,2.4929 0.83885,3.58186l-10.50788,10.50438c-0.48165,-0.08214 -0.97451,-0.14686 -1.48229,-0.14686c-4.6113,0 -8.36362,3.75232 -8.36362,8.36362c0,0.50781 0.06472,1.00064 0.1506,1.48605l-24.44374,24.44374c-1.09275,-0.52396 -2.29749,-0.83885 -3.58568,-0.83885c-4.6113,0 -8.36362,3.75232 -8.36362,8.36362c0,1.28815 0.31488,2.4929 0.83885,3.58186l-5.59805,5.59805l3.94157,3.94157l5.59805,-5.59805c1.09027,0.5252 2.29501,0.84009 3.58313,0.84009c4.6113,0 8.36362,-3.75232 8.36362,-8.36362c0,-1.28815 -0.31488,-2.4929 -0.83885,-3.58186l23.43787,-23.43787c1.44622,1.18735 3.26962,1.92911 5.27943,1.92911c4.6113,0 8.36362,-3.75232 8.36362,-8.36362c0,-2.01249 -0.74176,-3.83579 -1.9316,-5.28071l9.49852,-9.49852c1.09151,0.52272 2.29625,0.84009 3.58441,0.84009c4.6113,0 8.36362,-3.75232 8.36362,-8.36362c0,-1.28815 -0.31488,-2.4929 -0.83885,-3.58186l27.92109,-27.92109c1.09151,0.52148 2.29625,0.83636 3.58441,0.83636c4.6113,0 8.36362,-3.75232 8.36362,-8.36362c0,-1.28815 -0.31488,-2.4929 -0.83885,-3.58186l25.13322,-25.13322c1.09151,0.52148 2.29625,0.83636 3.58441,0.83636c4.6113,0 8.36362,-3.75232 8.36362,-8.36362c0,-1.28815 -0.31488,-2.4929 -0.83885,-3.58186l2.81027,-2.81027l-3.94259,-3.94337l-0.00001,0z"/>
  <rect stroke="null" fill="#000000" x="296.19292" y="345.85429" width="7.026" height="144.00052" id="svg_14"/>
  <rect stroke="null" fill="#000000" x="319.60737" y="106.83487" width="10" height="340" id="svg_16" transform="matrix(0 0.776182 -0.572902 0 552.176 238.617)"/>
  <path stroke="null" d="m372.22,330.79c0,0 0,0 0,0c0,-14.11745 0,-21.95291 0,-23.52c0,0 0,0 0,0c31.07,0 48.32,0 51.77,0c0,0 0,0 0,0c0,14.11064 0,21.9461 0,23.52c0,0 0,0 0,0c-31.06,0 -48.33,0 -51.77,0z" id="svg_12"/>
  <path stroke="null" id="svg_13" d="m468.24348,390.84952c0,4.61863 -3.74498,8.36362 -8.36361,8.36362s-8.36362,-3.74499 -8.36362,-8.36362s3.74499,-8.36361 8.36362,-8.36361s8.36361,3.74498 8.36361,8.36361"/>
 </g>
</svg>