<svg width="640" height="640" xmlns="http://www.w3.org/2000/svg" preserveAspectRatio="xMidYMid meet" version="1.1">

 <g>
  <title>Layer 1</title>
  <path id="bEP6Bzlc" d="m638.3,319.15c0,176.14 -143.01,319.15 -319.15,319.15c-176.14,0 -319.15,-143.01 -319.15,-319.15c0,-176.14 143.01,-319.15 319.15,-319.15c176.14,0 319.15,143.01 319.15,319.15z" fill="#fdc086"/>
  <path id="a3bi0j2Xsf" d="m368.01,503.31c0,0 0,0 0,0c0,-20.72 0,-32.22 0,-34.52c0,0 0,0 0,0c31.05,0 48.32,0 51.77,0c0,0 0,0 0,0c0,20.71 0,32.21 0,34.52c0,0 0,0 0,0c-31.08,0 -48.33,0 -51.77,0z"/>
  <path id="hkZU7zHll" d="m368.01,445.32c0,0 0,0 0,0c0,-20.7 0,-32.2 0,-34.52c0,0 0,0 0,0c31.05,0 48.32,0 51.77,0c0,0 0,0 0,0c0,20.72 0,32.21 0,34.52c0,0 0,0 0,0c-31.08,0 -48.33,0 -51.77,0z"/>
  <path id="b6jhh1FTu" d="m368.01,387.79c0,0 0,0 0,0c0,-20.72 0,-32.22 0,-34.52c0,0 0,0 0,0c31.05,0 48.32,0 51.77,0c0,0 0,0 0,0c0,20.71 0,32.21 0,34.52c0,0 0,0 0,0c-31.08,0 -48.33,0 -51.77,0z"/>
  <path id="a2rKF5UhtJ" d="m293.22,445.32c0,0 0,0 0,0c0,-20.7 0,-32.2 0,-34.52c0,0 0,0 0,0c31.07,0 48.32,0 51.77,0c0,0 0,0 0,0c0,20.72 0,32.21 0,34.52c0,0 0,0 0,0c-31.06,0 -48.33,0 -51.77,0z"/>
  <path id="a1xIAt3K6" d="m293.22,387.79c0,0 0,0 0,0c0,-20.72 0,-32.22 0,-34.52c0,0 0,0 0,0c31.07,0 48.32,0 51.77,0c0,0 0,0 0,0c0,20.71 0,32.21 0,34.52c0,0 0,0 0,0c-31.06,0 -48.33,0 -51.77,0z"/>
  <path id="b1N6lIn57D" d="m293.22,468.79c0,9.2 0,14.95 0,17.25c0,9.54 7.73,17.27 17.25,17.27c2.31,0 13.82,0 34.52,0c0,-2.31 0,-13.81 0,-34.52c-31.05,0 -48.32,0 -51.77,0z"/>
  <path id="a6sseYgide" d="m442.71,445.32c0,0 0,0 0,0c0,-20.7 0,-32.2 0,-34.52c0,0 0,0 0,0c31.09,0 48.33,0 51.78,0c0,0 0,0 0,0c0,20.72 0,32.21 0,34.52c0,0 0,0 0,0c-31.07,0 -48.33,0 -51.78,0z"/>
  <path id="dJVQ3okPb" d="m442.71,387.79c0,0 0,0 0,0c0,-20.72 0,-32.22 0,-34.52c0,0 0,0 0,0c31.09,0 48.33,0 51.78,0c0,0 0,0 0,0c0,20.71 0,32.21 0,34.52c0,0 0,0 0,0c-31.07,0 -48.33,0 -51.78,0z"/>
  <path id="bdKfgPeYR" d="m303.12,272.73c-5.47,0 -9.9,7.73 -9.9,17.26c0,5.39 0,18.79 0,40.27c40.25,0 181.15,0 201.27,0c0,-24.15 0,-37.58 0,-40.27c0,-9.53 -4.43,-17.26 -9.9,-17.26c-18.14,0 -163.33,0 -181.47,0z"/>
  <path id="a35eWnq5SY" d="m442.71,468.79c0,3.45 0,31.07 0,34.52c21.5,0 33,0 34.51,0c9.53,0 17.27,-7.73 17.27,-17.27c0,-1.14 0,-6.9 0,-17.25c-3.45,0 -20.69,0 -51.78,0z"/>
  <path stroke="null" id="a1vEowyF44" d="m228.08705,172.56001c14.75243,14.76078 22.95564,22.95564 24.59295,24.59295c0,0 0,0 0,0c-73.52823,73.52823 -114.37725,114.37725 -122.5554,122.54705c0,0 0,0 0,0c-14.75243,-14.75243 -22.94729,-22.94729 -24.58459,-24.58459c0,0 0,0 0,0c73.52823,-73.53658 114.37725,-114.3856 122.54705,-122.5554c0,0 0,0 0,0z"/>
  <path stroke="null" id="aAsujmJQT" d="m277.33,124.55082l23.35918,23.35918l11.27082,-16.92211l-17.70789,-17.70789l-16.92211,11.27082z"/>
  <path stroke="null" id="c1oHuDfW3A" d="m319.3884,259.99c-0.66526,-1.24524 2.14078,-8.78488 2.37107,-10.29452c1.39876,-8.97252 1.35611,-18.18385 0.0597,-27.1649c-5.25387,-36.49564 -32.29084,-65.18724 -58.92694,-88.69319c-24.32474,-21.45046 -57.31496,-36.75151 -90.53546,-28.72571c-0.98084,0.23028 -5.37328,2.13225 -6.10677,1.73992c37.33148,20.23082 72.26632,47.66012 100.88115,79.67803c19.89818,22.26925 37.45089,46.63664 51.86492,72.74394c0.13646,0.23881 0.2644,0.47762 0.39233,0.71644z"/>
  <path id="bf2Ksollw" d="m271.85,266.24c1.25,1.13 2.82,1.69 4.38,1.69c1.78,0 3.56,-0.73 4.85,-2.16c2.41,-2.67 2.2,-6.8 -0.47,-9.22c-2.25,-2.03 -20.25,-18.29 -22.49,-20.32c-2.67,-2.41 -6.81,-2.21 -9.23,0.47c-2.41,2.68 -2.21,6.81 0.47,9.23c2.25,2.03 20.24,18.28 22.49,20.31z"/>
  <path id="aozlura" d="m361.17,252.89c1.04,-2.69 9.36,-24.18 10.4,-26.87c1.3,-3.36 -0.38,-7.14 -3.74,-8.44c-3.34,-1.3 -7.14,0.37 -8.45,3.73c-1.04,2.69 -9.35,24.18 -10.39,26.86c-1.3,3.37 0.37,7.15 3.73,8.45c0.78,0.3 1.57,0.44 2.36,0.44c2.62,0 5.09,-1.59 6.09,-4.17z"/>
  <path id="c8ci4yayJ" d="m237.8,301.26c-3.6,0.25 -6.3,3.37 -6.05,6.97c0.24,3.44 3.11,6.07 6.5,6.07c0.16,0 0.32,0 0.47,-0.02c3.23,-0.22 29.09,-2.05 32.32,-2.28c3.6,-0.25 6.31,-3.38 6.05,-6.97c-0.25,-3.61 -3.49,-6.37 -6.97,-6.06c-3.23,0.23 -29.08,2.06 -32.32,2.29z"/>
 </g>
</svg>