<svg width="640" height="640" xmlns="http://www.w3.org/2000/svg" preserveAspectRatio="xMidYMid meet" version="1.1">

 <g>
  <title>Layer 1</title>
  <path fill="#fdc086" d="m638.3,320.15c0,176.14 -143.01,319.15 -319.15,319.15c-176.14,0 -319.15,-143.01 -319.15,-319.15c0,-176.14 143.01,-319.15 319.15,-319.15c176.14,0 319.15,143.01 319.15,319.15z" id="bEP6Bzlc"/>
  <g stroke="null" id="svg_3">
   <path stroke="null" id="svg_1" d="m517.06978,308.44892l0,-95.28583c9.01338,-2.57563 15.45075,-10.94596 15.45075,-21.24545c0,-12.23206 -9.65681,-21.88888 -21.88888,-21.88888c-12.23206,0 -21.88888,9.65681 -21.88888,21.88888c0,9.65681 6.43767,18.02676 15.45075,21.24545l0,92.70602l-16.09722,15.45075c-1.93251,-7.72727 -6.43767,-14.80808 -12.8755,-19.95933c-7.08081,-6.43767 -14.80808,-10.29949 -23.82145,-11.58864l16.09418,-16.09418c1.28634,-1.28634 1.93251,-2.57563 1.93251,-4.50517l0,-97.85803c9.01338,-2.57563 15.45075,-10.94596 15.45075,-21.24545c0,-12.23206 -9.65681,-21.88888 -21.88888,-21.88888s-21.88888,9.65681 -21.88888,21.88888c0,9.65681 6.43767,18.02676 15.45075,21.24545l0,94.64087l-18.02676,18.02676c-10.94596,-25.10756 -41.20478,-36.69619 -66.95502,-25.10756l0,-88.8439c9.01338,-2.57563 15.45075,-10.94596 15.45075,-21.24545c0,-12.23206 -9.65681,-21.88888 -21.88888,-21.88888s-21.88888,9.65681 -21.88888,21.88888c0,9.65681 6.43767,18.02676 15.45075,21.24545l0,81.11966c-14.16464,-12.23206 -34.12095,-14.16464 -50.21817,-5.79447l0,-75.32497c9.01338,-2.57563 15.45075,-10.94596 15.45075,-21.24545c0,-12.23206 -9.65681,-21.88888 -21.88888,-21.88888c-12.23206,0 -21.88888,9.65681 -21.88888,21.88888c0,9.65681 6.43767,18.02676 15.45075,21.24545l0,72.10628c-30.25882,-23.17802 -75.96765,-7.72727 -85.62673,30.25882l-14.80808,-15.45075l0,-92.70602c9.01338,-3.21883 15.45075,-11.58864 15.45075,-21.24545c0,-12.23206 -9.65681,-21.88888 -21.88888,-21.88888c-12.23206,0 -22.53459,9.65681 -22.53459,21.88888c0,9.65681 6.43767,18.02676 15.45075,21.24545l0,95.27823c0,1.93251 0.64318,3.21883 1.93251,4.50517l16.09418,16.09418c-19.95933,3.21883 -34.76361,18.66943 -37.33963,37.98534l-13.51818,-13.51818l-0.00297,-92.70602c9.01338,-2.57563 15.45075,-10.94596 15.45075,-21.24545c0,-12.23206 -9.65681,-21.88888 -21.88888,-21.88888c-12.23206,0 -21.88888,10.29949 -21.88888,22.53155c0,9.65681 6.43767,18.02676 15.45075,21.24545l0,95.27823c0,1.93251 0.64318,3.21883 1.93251,4.50517l19.31287,19.31287c-19.95933,8.36995 -28.32624,28.32624 -27.04014,45.0669c1.93251,19.95933 16.73989,41.84746 45.0669,41.84746l52.79038,0l0,21.88888c0,3.21883 1.93251,5.79447 5.15134,6.43767l14.16464,2.57563c1.28634,5.15134 3.86197,10.29949 6.43767,15.45075l-7.72727,10.949c-1.93251,2.57563 -1.28634,5.79447 0.64318,8.36995l19.31287,19.95933c1.93251,1.93251 5.79447,2.57563 8.36995,0.64318l11.58864,-8.36995c5.15134,2.57563 9.65681,4.50517 15.45075,6.43767l2.57563,14.16464c0.64318,3.21883 3.21883,5.15134 6.43767,5.15134l27.68282,0c3.21883,0 5.79447,-1.93251 6.43767,-5.15134l2.57563,-14.16464c5.15134,-1.28634 10.29949,-3.86197 15.45075,-6.43767l11.58864,8.36995c2.57563,1.93251 5.79447,1.28634 8.36995,-0.64318l19.95933,-19.95933c1.93251,-1.93251 2.57563,-5.79447 0.64318,-8.36995l-8.36995,-11.58864c2.57563,-5.15134 4.50517,-9.65681 6.43767,-15.45075l14.16464,-2.57563c3.21883,-0.64318 5.15134,-3.21883 5.15134,-6.43767l0,-21.88888l52.79038,0c27.04014,0 41.84746,-19.95933 45.0669,-39.27221c2.57563,-16.73989 -4.50517,-36.69619 -23.17802,-46.35301l20.60201,-20.60201c0.64613,0 1.28929,-1.93251 1.28929,-3.21883l0.00978,0.00334l0.00014,0.00001zm-63.09291,-157.73226c0,-5.15134 3.86197,-9.01338 9.01338,-9.01338c5.15134,0 9.01338,3.86197 9.01338,9.01338c0,5.14837 -3.86197,9.01338 -9.01338,9.01338c-5.15134,0 -9.01338,-3.865 -9.01338,-9.01338zm-274.90089,-7.72727c0,-5.15134 3.86197,-9.01338 9.01338,-9.01338c5.15134,0 9.01338,3.86197 9.01338,9.01338s-3.86197,9.01338 -9.01338,9.01338c-4.50517,0 -9.01338,-3.86197 -9.01338,-9.01338zm-45.70958,48.28559c0,-5.15134 3.86197,-9.01338 9.01338,-9.01338c5.15134,0 9.01338,3.86197 9.01338,9.01338c0,5.15134 -3.86197,9.01338 -9.01338,9.01338c-5.14837,0 -9.01338,-4.50517 -9.01338,-9.01338zm223.40344,-42.4909c0,-5.15134 3.86197,-9.01338 9.01338,-9.01338c5.15134,0 9.01338,3.86197 9.01338,9.01338c0,5.15134 -3.86197,9.01338 -9.01338,9.01338c-5.15134,0 -9.01338,-3.86197 -9.01338,-9.01338zm-63.09291,0c0,-5.15134 3.86197,-9.01338 9.01338,-9.01338c5.15134,0 9.01338,3.86197 9.01338,9.01338c0,5.15134 -3.86197,9.01338 -9.01338,9.01338c-5.15134,0.64318 -9.01338,-3.86197 -9.01338,-9.01338zm113.3141,285.84987l-12.8755,1.93251c-2.57563,0.64318 -4.50517,2.57563 -5.15134,5.15134c-1.28634,6.43767 -3.86197,12.8755 -7.72727,19.31287c-1.28634,1.93251 -1.28634,5.15134 0,7.08081l7.08081,10.29949l-12.23206,12.23206l-10.29949,-7.08081c-1.93251,-1.28634 -5.15134,-1.28634 -7.08081,0c-5.79447,3.86197 -12.23206,6.43767 -19.31287,7.72727c-2.57563,0.64318 -4.50517,2.57563 -5.15134,5.15134l-1.93251,12.8755l-16.73989,0l-1.93251,-12.8755c-0.64318,-2.57563 -2.57563,-4.50517 -5.15134,-5.15134c-7.08081,-1.93251 -13.51818,-4.50517 -19.31287,-7.72727c-1.93251,-1.28634 -5.15134,-1.28634 -7.08081,0l-10.29949,7.08081l-12.23206,-12.23206l7.08081,-10.29949c1.28634,-1.93251 1.28634,-5.15134 0,-7.08081c-3.86197,-5.79447 -6.43767,-12.23206 -7.72727,-19.31287c-0.64318,-2.57563 -2.57563,-4.50517 -5.15134,-5.15134l-12.8755,-1.93251l0.00297,-16.73762l12.8755,-2.57563c2.57563,-0.64318 4.50517,-2.57563 5.15134,-5.15134c1.28634,-6.43767 4.50517,-13.51818 7.72727,-19.31287c1.28634,-1.93251 1.28634,-5.15134 0,-7.08081l-7.08081,-10.29949l12.23206,-12.23206l10.29949,7.08081c1.93251,1.28634 4.50517,1.28634 7.08081,0c5.79447,-3.86197 12.23206,-6.43767 19.31287,-7.72727c2.57563,-0.64318 4.50517,-2.57563 5.15134,-5.15134l1.93251,-12.8755l17.38029,0l1.93251,12.8755c0.64318,2.57563 2.57563,4.50517 5.15134,5.15134c7.08081,1.93251 13.51818,4.50517 19.31287,7.72727c1.93251,1.28634 5.15134,1.28634 7.08081,0l10.29949,-7.08081l12.23206,12.23206l-7.08081,10.29949c-1.28634,1.93251 -1.28634,5.15134 0,7.08081c3.86197,5.79447 6.43767,12.23206 7.72727,19.31287c0.64318,2.57563 2.57563,4.50517 5.15134,5.15134l12.8755,2.57563l0,16.73762l-0.64336,0zm97.85803,-56.6525c-1.93251,14.16464 -12.8755,28.32624 -32.1914,28.32624l-60.51765,0l-11.58864,-1.93251c-1.28634,-5.15134 -3.86197,-10.29949 -6.43767,-15.45075l8.36995,-11.58864c1.93251,-2.57563 1.28634,-5.79447 -0.64318,-8.36995l-19.95933,-19.31287c-1.93251,-1.93251 -5.79447,-2.57563 -8.36995,-0.64318l-11.58864,7.72727c-4.50517,-2.57563 -9.65681,-4.50517 -15.45075,-6.43767l-2.57563,-14.16464c-0.64318,-3.21883 -3.21883,-5.15134 -6.43767,-5.15134l-27.68282,0c-3.21883,0 -5.79447,1.93251 -6.43767,5.15134l-2.57563,14.16464c-5.15134,1.28634 -10.29949,3.86197 -15.45075,6.43767l-10.29949,-8.36995c-2.57563,-1.93251 -5.79447,-1.28634 -8.36995,0.64318l-19.31287,19.31287c-1.93251,1.93251 -2.57563,5.79447 -0.64318,8.36995l8.36995,11.58864c-2.57563,5.15134 -4.50517,9.65681 -6.43767,15.45075l-12.8755,2.57563c-2.57563,-0.64318 5.15134,0 -59.23079,0c-20.60201,0 -30.90226,-14.80808 -32.1914,-30.25882c-3.86197,-46.99644 64.37977,-45.70958 64.37977,-2.57563c0,3.86197 2.57563,6.43767 6.43767,6.43767c3.86197,0 6.43767,-2.57563 6.43767,-6.43767c0,-27.68282 -25.10756,-46.99644 -45.70958,-45.0669c-2.57563,-20.60201 16.09418,-39.91488 39.27221,-35.41009c3.86197,0.64318 7.72727,-2.57563 7.72727,-7.08081c0,-38.62877 47.64215,-55.36639 72.74972,-27.68282c0,0 0,0.64318 0.64318,0.64318c22.53155,26.3967 3.86197,68.24189 -31.54493,68.24189c-3.86197,0 -6.43767,2.57563 -6.43767,6.43767c0,3.86197 2.57563,6.43767 6.43767,6.43767c41.20478,0 67.59845,-44.42346 47.64215,-80.47471c7.08081,-5.15134 16.09418,-7.72727 25.10756,-5.79447c24.46413,4.50517 20.60201,25.75099 31.54493,22.53155c3.21883,-0.64318 16.73989,-14.80808 38.62877,-6.43767c10.29949,3.86197 18.66943,12.23206 21.88888,22.53155c-17.38333,6.43767 -28.32624,23.17802 -28.32624,41.84746c0,3.86197 2.57563,6.43767 6.43767,6.43767s6.43767,-2.57563 6.43767,-6.43767c0,-27.68282 32.83407,-43.13432 54.07952,-22.53155c7.08081,6.43767 10.94596,16.09418 10.29949,23.82145c-0.64318,3.21883 1.93251,6.43767 4.50517,7.08081c17.38333,4.51109 23.82145,21.25152 21.89191,35.41616l-0.00216,-0.00263l0,0.00002zm-3.865,-186.05698c0,-5.15134 3.86197,-9.01338 9.01338,-9.01338c5.15134,0 9.01338,3.86197 9.01338,9.01338s-3.86197,9.01338 -9.01338,9.01338c-4.50517,0 -9.01338,-3.86197 -9.01338,-9.01338z"/>
   <path stroke="null" id="svg_2" d="m324.57087,376.69232c-27.04014,0 -49.57169,22.53155 -49.57169,49.57169s22.53155,49.57169 49.57169,49.57169s49.57169,-22.53155 49.57169,-49.57169c0.00297,-27.03711 -22.53155,-49.57169 -49.57169,-49.57169zm0,86.27168c-19.95933,0 -36.69619,-16.73989 -36.69619,-36.69619c0,-19.95933 16.73989,-36.69619 36.69619,-36.69619c19.95933,0 36.69619,16.73989 36.69619,36.69619c0,20.59897 -16.73762,36.69619 -36.69619,36.69619z"/>
  </g>
 </g>
</svg>