<svg width="639.9999999999999" height="639.9999999999999" xmlns="http://www.w3.org/2000/svg" preserveAspectRatio="xMidYMid meet" version="1.1"> 
  <path id="bEP6Bzlc" d="m638.3,320.15c0,176.14 -143.01,319.15 -319.15,319.15c-176.14,0 -319.15,-143.01 -319.15,-319.15c0,-176.14 143.01,-319.15 319.15,-319.15c176.14,0 319.15,143.01 319.15,319.15z" fill="#fdc086"/>
  <path stroke="#000" stroke-miterlimit="10" d="m219.31588,426.46049l-49.73293,87.88371l0,32.93963s37.14983,24.36554 156.95294,24.36554l-3.36697,-111.86932l-103.85304,-33.31956z"/>
  <path stroke="#000" stroke-miterlimit="10" d="m421.54426,426.46049l47.72144,87.88371l0,32.93963s-35.6537,24.36554 -150.59205,24.36554l3.2325,-111.86932l99.6381,-33.31956z"/>
  <path stroke="#000" stroke-miterlimit="10" d="m183.10652,85.707s-22.35685,50.76228 -67.6456,70.70972c0,0 38.23003,4.84111 67.6456,61.64502c0,0 17.05235,-41.69657 64.69893,-61.64502c0,0 -46.46281,-21.15265 -64.69893,-70.70972z"/>
  <path stroke="#000" stroke-miterlimit="10" d="m321.27798,78.13339c-35.88771,0 -69.4393,10.13785 -97.99329,27.70802l5.30957,6.38245c27.14864,-16.07082 58.83147,-25.32786 92.68214,-25.32786c100.43195,0 181.86734,81.17904 181.86734,181.3152c0,100.12958 -81.4354,181.3152 -181.86734,181.3152c-100.43195,0.0046 -181.8542,-81.18561 -181.8542,-181.30862c0,-20.46303 3.45257,-40.11494 9.72045,-58.46929l-5.10777,-6.13944c-7.22592,20.16527 -11.18299,41.91731 -11.18299,64.59945c0,104.9806 84.36047,190.07727 188.43397,190.07727c104.06693,0 188.4274,-85.09667 188.4274,-190.07727c0,-104.96746 -84.37362,-190.0707 -188.44055,-190.0707l0.00526,-0.0044z"/>
  <path stroke="#000" stroke-miterlimit="10" d="m294.08205,124.52741s-13.61762,18.90744 -33.97246,23.1475c0,0 15.27799,5.33131 22.38731,31.25596c0,0 10.65624,-15.6469 31.98103,-19.6772c-0.00638,-0.00319 -17.24069,-12.75894 -20.39634,-34.72626l0.00046,0z"/>
  <path stroke="#000" stroke-miterlimit="10" d="m211.96824,217.06467s-13.36642,18.55865 -33.33637,22.72049c0,0 14.99615,5.23296 21.96806,30.67938c0,0 10.46593,-15.3614 31.39107,-19.31421c0,-0.00622 -16.91638,-12.52626 -20.02322,-34.08566l0.00045,0z"/>
  <path stroke="null" d="m332.51003,383.90751c0,0 0,0 0,0c0,-16.19036 0,-25.17633 0,-26.97352c0,0 0,0 0,0c24.2621,0 37.75667,0 40.45246,0c0,0 0,0 0,0c0,16.18255 0,25.16851 0,26.97352c0,0 0,0 0,0c-24.28554,0 -37.76449,0 -40.45246,0z" id="svg_35"/>
  <path stroke="null" d="m332.51003,338.59482c0,0 0,0 0,0c0,-16.17473 0,-25.1607 0,-26.97352c0,0 0,0 0,0c24.2621,0 37.75667,0 40.45246,0c0,0 0,0 0,0c0,16.19036 0,25.16851 0,26.97352c0,0 0,0 0,0c-24.28554,0 -37.76449,0 -40.45246,0z" id="svg_34"/>
  <path stroke="null" d="m332.51003,293.64156c0,0 0,0 0,0c0,-16.19036 0,-25.17633 0,-26.97352c0,0 0,0 0,0c24.2621,0 37.75667,0 40.45246,0c0,0 0,0 0,0c0,16.18255 0,25.16851 0,26.97352c0,0 0,0 0,0c-24.28554,0 -37.76449,0 -40.45246,0z" id="svg_33"/>
  <path stroke="null" d="m274.07001,338.59482c0,0 0,0 0,0c0,-16.17473 0,-25.1607 0,-26.97352c0,0 0,0 0,0c24.27773,0 37.75667,0 40.45246,0c0,0 0,0 0,0c0,16.19036 0,25.16851 0,26.97352c0,0 0,0 0,0c-24.26992,0 -37.76449,0 -40.45246,0z" id="svg_32"/>
  <path stroke="null" d="m274.07001,293.64156c0,0 0,0 0,0c0,-16.19036 0,-25.17633 0,-26.97352c0,0 0,0 0,0c24.27773,0 37.75667,0 40.45246,0c0,0 0,0 0,0c0,16.18255 0,25.16851 0,26.97352c0,0 0,0 0,0c-24.26992,0 -37.76449,0 -40.45246,0z" id="svg_31"/>
  <path stroke="null" d="m274.07001,356.934c0,7.18877 0,11.68175 0,13.47895c0,7.45444 6.04013,13.49457 13.47895,13.49457c1.80501,0 10.79878,0 26.97352,0c0,-1.80501 0,-10.79097 0,-26.97352c-24.2621,0 -37.75667,0 -40.45246,0z" id="svg_30"/>
  <path stroke="null" d="m390.87972,338.59482c0,0 0,0 0,0c0,-16.17473 0,-25.1607 0,-26.97352c0,0 0,0 0,0c24.29336,0 37.76449,0 40.46028,0c0,0 0,0 0,0c0,16.19036 0,25.16851 0,26.97352c0,0 0,0 0,0c-24.27773,0 -37.76449,0 -40.46028,0z" id="svg_29"/>
  <path stroke="null" d="m390.87972,293.64156c0,0 0,0 0,0c0,-16.19036 0,-25.17633 0,-26.97352c0,0 0,0 0,0c24.29336,0 37.76449,0 40.46028,0c0,0 0,0 0,0c0,16.18255 0,25.16851 0,26.97352c0,0 0,0 0,0c-24.27773,0 -37.76449,0 -40.46028,0z" id="svg_28"/>
  <path stroke="null" d="m281.80576,203.73504c-4.27419,0 -7.73574,6.04013 -7.73574,13.48676c0,4.21168 0,14.68228 0,31.4665c31.45087,0 141.54846,0 157.26999,0c0,-18.87052 0,-29.36457 0,-31.4665c0,-7.44663 -3.46155,-13.48676 -7.73574,-13.48676c-14.17438,0 -127.62412,0 -141.7985,0z" id="svg_27"/>
  <path stroke="null" d="m390.87972,356.934c0,2.69579 0,24.27773 0,26.97352c16.79984,0 25.78581,0 26.9657,0c7.44663,0 13.49457,-6.04013 13.49457,-13.49457c0,-0.89078 0,-5.39158 0,-13.47895c-2.69579,0 -16.16692,0 -40.46028,0z" id="svg_26"/>
</svg>