<svg width="640" height="640" xmlns="http://www.w3.org/2000/svg" version="1.1" preserveAspectRatio="xMidYMid meet">
 <g>
  <title>Layer 1</title>
  <path id="bEP6Bzlc" d="m638.3,321.15c0,176.14 -143.01,319.15 -319.15,319.15c-176.14,0 -319.15,-143.01 -319.15,-319.15c0,-176.14 143.01,-319.15 319.15,-319.15c176.14,0 319.15,143.01 319.15,319.15z" fill="#fdc086"/>
  <path stroke="null" id="svg_1" d="m138.25535,462.18547l-0.20415,-306.76879l-20.30119,0.33332l0,315.96773c0,2.79291 1.41896,5.47304 3.94412,7.44781s5.95228,3.08445 9.52362,3.08445l404.03223,0l0,-21.06452l-396.99463,1z"/>
  <path stroke="null" id="svg_2" d="m222.09109,320.05603c14.43182,20.63461 30.74707,44.08099 66.08254,44.08099s51.65073,-23.44639 66.08254,-44.08099s24.41085,-33.42405 41.80733,-33.42405s26.97247,12.59456 41.94296,33.42405s30.61221,44.08099 65.94691,44.08099l0,-19.37626c-17.39647,0 -26.97247,-12.59456 -41.94296,-33.42405s-30.61221,-44.08099 -65.94691,-44.08099s-51.65073,23.44639 -66.08254,44.08099s-24.41085,33.42405 -41.80733,33.42405s-26.97247,-12.59456 -41.80733,-33.42405s-30.74707,-44.08099 -66.08254,-44.08099l0,19.37626c17.39647,0 26.97247,12.59456 41.80733,33.42405z"/>
  <ellipse stroke="#000000" cx="212.62377" cy="226.42898" id="svg_5" rx="15.6375" ry="15.37261" fill="#fdc086" stroke-width="10"/>
  <ellipse stroke="#000000" cx="311.04507" cy="274.72032" id="svg_7" rx="15.6375" ry="15.37261" fill="#fdc086" stroke-width="10"/>
  <ellipse stroke="#000000" cx="190.87662" cy="358.03089" id="svg_8" rx="15.6375" ry="15.37261" fill="#fdc086" stroke-width="10"/>
  <ellipse stroke="#000000" cx="305.44854" cy="407.2016" id="svg_9" rx="15.6375" ry="15.37261" fill="#fdc086" stroke-width="10"/>
  <ellipse stroke="#000000" cx="492.43747" cy="273.71521" id="svg_10" rx="15.6375" ry="15.37261" fill="#fdc086" stroke-width="10"/>
  <ellipse stroke="#000000" cx="413.02458" cy="365.06669" id="svg_11" rx="15.6375" ry="15.37261" fill="#fdc086" stroke-width="10"/>
  <ellipse stroke="#000000" cx="408.44128" cy="217.90586" id="svg_13" rx="15.6375" ry="15.37261" fill="#fdc086" stroke-width="10"/>
 </g>

</svg>