<svg width="638" height="638" xmlns="http://www.w3.org/2000/svg" version="1.1" preserveAspectRatio="xMidYMid meet">
 <g>
  <title>Layer 1</title>
  <metadata id="svg_17" stroke="null">image/svg+xml</metadata>
  <g stroke="null" id="svg_1">
   <g stroke="null" id="svg_2">
    <title stroke="null">Layer 1</title>
    <path stroke="null" fill="#fdc086" d="m639.15001,319.00001c0,176.14 -143.01,319.15 -319.15,319.15c-176.14,0 -319.15,-143.01 -319.15,-319.15c0,-176.14 143.01,-319.15 319.15,-319.15c176.14,0 319.15,143.01 319.15,319.15z" id="svg_8"/>
    <metadata stroke="null" id="svg_7">image/svg+xml</metadata>
    <g stroke="null" id="svg_4">
     <rect stroke="null" fill="#000000" x="151.84999" y="301.85002" width="9.82353" height="204.80248" id="svg_6"/>
     <rect stroke="null" fill="#000000" x="338.98358" y="281.60019" width="10" height="340" id="svg_5" transform="matrix(0 0.890566 -0.982351 0 762.481 200.293)"/>
    </g>
   </g>
  </g>
  <g stroke="null">
   <g stroke="null" transform="matrix(1.00333 0 0 1.23642 0.260643 -161.634)">
    <path stroke=" rgb(0, 0, 0)" stroke-width=" 7px" fill=" none" d="m178.00558,503.66521c55.418,0 114.802,-27.452 152.075,-68.463c27.668,-30.442 82.873,-80.09 148.148,-80.808"/>
    <path stroke=" rgb(90, 90, 90)" stroke-dasharray=" 5px" stroke-width=" 5px" fill=" none" d="m178.06458,518.80521c55.418,0 119.853,-28.574 157.126,-69.585c27.668,-30.442 77.822,-78.968 143.097,-79.686"/>
    <path stroke=" rgb(90, 90, 90)" stroke-dasharray=" 5px" stroke-width=" 5px" fill=" none" d="m179.20058,490.42421c55.418,0 110.874,-29.697 148.147,-70.708c27.668,-30.442 85.117,-77.845 150.392,-78.563"/>
   </g>
  </g>
  <g>
   <g>
    <title>Layer 1</title>
    <metadata stroke="null" id="svg_27">image/svg+xml</metadata>
    <g id="svg_14" stroke="null">
     <path id="svg_23" d="m423.82792,235.72533c-30.81064,0 -47.9343,0 -51.35106,0c0,0 0,0 0,0c0,-20.54043 0,-31.94624 0,-34.2274c0,0 0,0 0,0c30.80068,0 47.9343,0 51.35106,0c0,0 0,0 0,0c0,20.53047 0,31.94624 0,34.2274c0,0 0,0 0,0z" stroke="null"/>
     <path id="svg_22" d="m276.16438,292.34388c-30.81064,0 -47.9343,0 -51.35106,0c0,0 0,0 0,0c0,-20.53047 0,-31.9562 0,-34.2274c0,0 0,0 0,0c30.80068,0 47.9343,0 51.35106,0c0,0 0,0 0,0c0,20.54043 0,31.94624 0,34.2274c0,0 0,0 0,0z" stroke="null"/>
     <path id="svg_21" d="m276.16438,235.29488c-30.81064,0 -47.9343,0 -51.35106,0c0,0 0,0 0,0c0,-20.54043 0,-31.9562 0,-34.24733c0,0 0,0 0,0c30.80068,0 47.9343,0 51.35106,0c0,0 0,0 0,0c0,20.55038 0,31.9562 0,34.24733c0,0 0,0 0,0z" stroke="null"/>
     <path id="svg_20" d="m150.64066,292.34388c0,0 0,0 0,0c0,-20.53047 0,-31.9562 0,-34.2274c0,0 0,0 0,0c30.81064,0 47.92434,0 51.3411,0c0,0 0,0 0,0c0,20.54043 0,31.94624 0,34.2274l-51.3411,0z" stroke="null"/>
     <path id="svg_19" d="m201.98176,235.29488c-30.80068,0 -47.91437,0 -51.3411,0c0,0 0,0 0,0c0,-20.54043 0,-31.9562 0,-34.24733c0,0 0,0 0,0c30.81064,0 47.92434,0 51.3411,0c0,0 0,0 0,0c0,20.55038 0,31.9562 0,34.24733c0,0 0,0 0,0z" stroke="null"/>
     <path id="svg_18" d="m349.6453,235.72533c-30.80068,0 -47.91437,0 -51.3411,0c0,0 0,0 0,0c0,-20.54043 0,-31.94624 0,-34.2274c0,0 0,0 0,0c30.81064,0 47.92434,0 51.3411,0c0,0 0,0 0,0c0,20.53047 0,31.94624 0,34.2274c0,0 0,0 0,0z" stroke="null"/>
     <path id="svg_16" d="m482.74057,121.17698c-31.37844,0 -282.43583,0 -313.81428,0c-9.45337,0 -17.11371,7.67028 -17.11371,17.12366c0,5.30943 0,18.63779 0,39.93529c69.61032,0 313.24647,0 348.05165,0c0,-23.96715 0,-37.2756 0,-39.93529c0,-9.45337 -7.67028,-17.12366 -17.12366,-17.12366z" stroke="null"/>
     <path id="svg_15" d="m494.1439,236.89727c-30.81064,0 -47.9343,0 -51.35106,0c0,0 0,0 0,0c0,-20.54043 0,-31.94624 0,-34.2274c0,0 0,0 0,0c30.80068,0 47.9343,0 51.35106,0c0,0 0,0 0,0c0,20.53047 0,31.94624 0,34.2274c0,0 0,0 0,0z" stroke="null"/>
    </g>
   </g>
  </g>
 </g>

</svg>