<svg width="640" height="640" xmlns="http://www.w3.org/2000/svg" version="1.1" preserveAspectRatio="xMidYMid meet">
 <g>
  <title>Layer 1</title>
  <path fill="#fdc086" d="m638.3,320.15c0,176.14 -143.01,319.15 -319.15,319.15c-176.14,0 -319.15,-143.01 -319.15,-319.15c0,-176.14 143.01,-319.15 319.15,-319.15c176.14,0 319.15,143.01 319.15,319.15z" id="bEP6Bzlc"/>  
  <path stroke="null" d="m464.13004,425.2657c67.47789,-67.47391 78.69265,-165.65344 25.04745,-219.29466c-53.63724,-53.63525 -151.81279,-42.42247 -219.28669,25.04745c-67.47391,67.47191 -47.95514,196.379 -25.04346,219.29466c18.51463,18.51463 151.81279,42.42247 219.28271,-25.04745l-0.00001,0z" id="svg_3" fill="#62612C"/>
  <path d="m458.67177,417.95503c63.42444,-63.4207 73.96553,-155.70252 23.54283,-206.12147c-50.41521,-50.41334 -142.69329,-39.87412 -206.11398,23.54283c-63.4207,63.41882 -45.07444,184.58237 -23.53908,206.12147c17.40244,17.40244 142.69329,39.87412 206.11024,-23.54283l-0.00001,0z" id="svg_15" fill="#f89939" stroke="null"/>
  <path stroke="null" d="m192.48255,322.87911c-39.72932,-39.72932 -97.54793,-46.34345 -129.14252,-14.75089c-31.58651,31.58853 -24.98248,89.41523 14.75492,129.13849c39.73741,39.74145 115.65138,28.24608 129.13444,14.75089c10.911,-10.8928 24.99461,-89.40512 -14.74684,-129.13849z" id="svg_4" fill="#535F75"/>
  <path d="m187.431,326.31365c-36.79363,-36.79363 -90.33989,-42.91903 -119.59989,-13.66091c-29.25251,29.25438 -23.13647,82.80814 13.66465,119.59615c36.80112,36.80486 107.10564,26.15891 119.5924,13.66091c10.10476,-10.08791 23.1477,-82.79877 -13.65716,-119.59615z" id="svg_14" fill="#3499cd" stroke="null"/>
  <path d="m325.38288,402.41025c-6.49993,5.98308 -12.20212,10.39877 -17.10282,13.23582c-4.9007,2.84641 -9.57481,4.26775 -14.02233,4.26775c-5.11605,0 -9.24335,-1.98313 -12.37253,-5.95125c-3.1348,-3.97187 -4.69658,-9.29766 -4.69658,-15.99796c0,-10.03922 2.17601,-22.09153 6.52802,-36.14382c4.34452,-14.06353 9.63473,-27.02219 15.84815,-38.87788l18.21891,-6.74525c0.57116,-0.19101 1.00561,-0.28839 1.29399,-0.28839c1.38201,0 2.52432,1.01872 3.40071,3.04679c0.88576,2.03743 1.33145,4.77523 1.33145,8.21714c0,9.75458 -2.2453,19.1983 -6.74525,28.33117c-4.49808,9.13661 -11.52423,18.88745 -21.08593,29.26374c-0.38389,4.97373 -0.5749,8.38943 -0.5749,10.25645c0,4.16288 0.76404,7.45685 2.29398,9.8969c1.53182,2.4438 3.56176,3.65727 6.09732,3.65727c2.58612,0 5.33328,-0.92508 8.25085,-2.79023c2.91196,-1.86889 7.35947,-5.73777 13.33507,-11.62348l0,8.24523l0.00187,0l0.00002,0zm-27.46788,-28.03904c6.0711,-6.75087 11.00176,-14.32195 14.777,-22.69827c3.77524,-8.38006 5.66099,-15.58785 5.66099,-21.62712c0,-1.76028 -0.2603,-3.19098 -0.78276,-4.26587c-0.52621,-1.07677 -1.20036,-1.61796 -2.01122,-1.61796c-1.76215,0 -4.33703,4.40445 -7.70966,13.21522c-3.37262,8.8089 -6.68345,21.1421 -9.93435,36.994z" id="svg_12" fill="#010101" stroke="null"/>
  <path d="m379.03776,402.41025c-6.0711,5.98308 -11.52048,10.39877 -16.35189,13.23582c-4.83141,2.84641 -10.1572,4.26775 -15.99422,4.26775c-6.50368,0 -11.75082,-2.0805 -15.7489,-6.23589c-3.9906,-4.16662 -5.98308,-9.6366 -5.98308,-16.42867c0,-10.13473 3.5112,-19.30504 10.54858,-27.50533c7.0224,-8.20404 14.82007,-12.30324 23.37804,-12.30324c4.44752,0 8.00554,1.15167 10.68716,3.44566c2.67788,2.29773 4.01681,5.30706 4.01681,9.03736c0,9.90065 -10.51862,17.92865 -31.55773,24.099c1.91009,9.32013 6.9063,13.98675 14.98861,13.98675c3.15727,0 6.1666,-0.84831 9.03361,-2.54117c2.8745,-1.70036 7.19843,-5.47185 12.98489,-11.30138l0,8.24336l-0.00187,0l-0.00001,-0.00002zm-37.58388,-13.26578c12.2377,-3.44566 18.36123,-9.8014 18.36123,-19.07846c0,-4.58984 -1.67601,-6.88382 -5.01867,-6.88382c-3.15727,0 -6.1666,2.39885 -9.03361,7.20966c-2.87637,4.80332 -4.30894,11.05045 -4.30894,18.75262l-0.00001,0z" id="svg_11" fill="#010101" stroke="null"/>
  <path d="m455.63997,402.41025c-7.65161,7.26772 -13.12721,12.00737 -16.42305,14.20959c-3.29959,2.19848 -6.45499,3.29585 -9.46994,3.29585c-7.5561,0 -11.11599,-6.66847 -10.68716,-20.01103c-4.78085,6.83514 -9.19466,11.88003 -13.23582,15.13842c-4.03741,3.2509 -8.20778,4.87261 -12.51673,4.87261c-4.2022,0 -7.7752,-1.96814 -10.72086,-5.9138c-2.94566,-3.94565 -4.40819,-8.78455 -4.40819,-14.52794c0,-7.16847 1.96814,-14.00735 5.91005,-20.51477c3.9494,-6.50368 9.00553,-11.75831 15.17213,-15.77512c6.1666,-4.01681 11.62348,-6.02803 16.35189,-6.02803c5.97934,0 10.16469,2.75091 12.55605,8.24711l14.65903,-8.10104l4.02243,0l-6.3314,21.01289c-3.2509,10.57105 -4.88197,17.8163 -4.88197,21.73573c0,4.11044 1.45504,6.1666 4.37449,6.1666c1.85766,0 3.91382,-0.99063 6.16286,-2.9775c2.24904,-1.98687 5.39882,-5.01118 9.46245,-9.07481l0,8.24523l0.00375,0l-0.00001,0.00001zm-52.5032,3.9494c4.78085,0 9.28642,-4.07486 13.52608,-12.22647c4.23217,-8.15535 6.34638,-15.67961 6.34638,-22.56344c0,-2.67413 -0.60299,-4.76961 -1.79212,-6.27334c-1.20036,-1.51122 -2.80147,-2.26028 -4.80519,-2.26028c-4.78459,0 -9.32013,4.06363 -13.59162,12.19463c-4.27898,8.131 -6.42315,15.61407 -6.42315,22.44546c0,2.58612 0.6367,4.67785 1.9026,6.28083c1.2659,1.60298 2.87263,2.4026 4.83703,2.4026l-0.00001,0.00001z" id="svg_10" fill="#010101" stroke="null"/>
  <path d="m509.22181,402.41025c-12.00362,11.76205 -21.25821,17.64776 -27.76001,17.64776c-2.91945,0 -5.38384,-1.2322 -7.38756,-3.68723c-2.00372,-2.46439 -3.01308,-5.51492 -3.01308,-9.15159c0,-6.7415 3.61419,-15.77512 10.83322,-27.11021c-3.54116,1.81833 -7.41004,3.08049 -11.61973,3.79959c-3.10858,5.73777 -7.98868,11.90812 -14.63281,18.49981l-1.64605,0l0,-6.4475c3.72655,-3.87262 7.09918,-8.0355 10.11226,-12.48302c-4.11794,-1.81833 -6.17035,-4.52055 -6.17035,-8.10104c0,-3.68723 1.25092,-7.6179 3.76775,-11.80699c2.50934,-4.17973 5.96249,-6.2696 10.36506,-6.2696c3.7303,0 5.5917,1.90635 5.5917,5.73402c0,3.01308 -1.0749,7.31453 -3.2303,12.91185c7.93625,-0.86329 14.87063,-6.93064 20.80316,-18.21891l6.52428,-0.28839l-6.67034,18.36123c-2.77151,7.74711 -4.5655,13.02421 -5.37635,15.81819c-0.81085,2.79398 -1.22096,5.27335 -1.22096,7.42127c0,2.01122 0.46816,3.61794 1.39699,4.80519c0.93257,1.20411 2.19099,1.79586 3.76775,1.79586c1.71908,0 3.37262,-0.58801 4.94939,-1.75279c1.57676,-1.18164 5.11605,-4.41756 10.61787,-9.72462l0,8.24711l-0.00187,0l-0.00002,0.00001z" id="svg_9" fill="#010101" stroke="null"/>
  <path d="m579.65929,402.41025c-11.04483,11.67404 -20.51852,17.50544 -28.4042,17.50544c-3.20409,0 -5.78646,-1.12358 -7.74711,-3.37262c-1.9644,-2.2453 -2.94379,-5.2565 -2.94379,-9.03361c0,-5.11605 2.10672,-12.9362 6.31641,-23.45107c2.2453,-5.64414 3.37262,-9.23586 3.37262,-10.76019c0,-1.53182 -0.60299,-2.29773 -1.79212,-2.29773c-0.66853,0 -1.55804,0.33708 -2.6554,1.00186c-1.00935,0.66853 -2.17975,1.6086 -3.51869,2.80147c-1.19287,1.09737 -2.53555,2.4363 -4.01681,4.00932c-1.29399,1.35017 -2.68162,2.87825 -4.15539,4.59359l-4.02243,4.66662c-1.7659,2.14979 -2.86701,4.41756 -3.29585,6.81079c-0.72097,4.06363 -1.19662,7.79767 -1.43819,11.19651c-0.14607,2.52806 -0.21535,5.94376 -0.21535,10.25645l-15.8519,3.72281c-0.52247,-6.45499 -0.79025,-11.26206 -0.79025,-14.41371c0,-7.69842 0.89699,-14.99235 2.69286,-21.87618c1.79212,-6.89131 4.67036,-14.63281 8.64223,-23.24321l17.49795,-3.36888c-3.67974,9.90065 -6.09357,17.69083 -7.2415,23.37804c7.84262,-8.74897 14.05978,-14.80509 18.66835,-18.18146c4.60108,-3.37262 8.69841,-5.05051 12.2789,-5.05051c2.43256,0 4.46625,0.91759 6.08608,2.75465c1.62732,1.83893 2.4363,4.1479 2.4363,6.90817c0,4.5861 -2.05616,12.1422 -6.16286,22.66643c-2.82394,7.21715 -4.23591,11.90063 -4.23591,14.06353c0,2.87825 1.17415,4.31643 3.52244,4.31643c3.49622,0 9.15908,-4.61606 16.97361,-13.84443l0,8.24149z" id="svg_8" fill="#010101" stroke="null"/>  
  <text font-size="23.0795px" id="svg_5" x="362.48753" y="399.99994" font-family="Helvetica" fill="#ffffff" transform="matrix(1.87264 0 0 1.87264 -348.618 -472.604)" stroke="null">scikit</text>
 </g>

</svg>