<svg width="640" height="640" xmlns="http://www.w3.org/2000/svg" stroke="null" preserveAspectRatio="xMidYMid meet" version="1.1">
  <path id="a17KJ4PcoM" d="m639.3,318.61154c0,176.14 -143.01,319.15 -319.15,319.15c-176.14,0 -319.15,-143.01 -319.15,-319.15c0,-176.14 143.01,-319.15 319.15,-319.15c176.14,0 319.15,143.01 319.15,319.15z" fill="#dcbce9"/>
  <g id="svg_27" stroke="null">
   <path id="b1GEdEKhtA" d="m225.88847,295.49182c0,0 0,0 0,0c0,-21.36305 0,-33.21996 0,-35.59134c0,0 0,0 0,0c32.01365,0 49.81963,0 53.3767,0c0,0 0,0 0,0c0,21.35274 0,33.20965 0,35.59134c0,0 0,0 0,0c-32.04457,0 -49.82994,0 -53.3767,0z" stroke="null"/>
   <path id="eltAYtqzm" d="m148.77733,295.49182c0,0 0,0 0,0c0,-21.36305 0,-33.21996 0,-35.59134c0,0 0,0 0,0c32.03427,0 49.81963,0 53.3767,0c0,0 0,0 0,0c0,21.35274 0,33.20965 0,35.59134c0,0 0,0 0,0c-32.02396,0 -49.82994,0 -53.3767,0z" stroke="null"/>
   <path stroke="null" id="ft2Hr2taP" d="m148.77733,371.76116c0,9.48553 0,15.41398 0,17.78537c0,9.83607 7.96991,17.80598 17.78537,17.80598c2.38169,0 14.24891,0 35.59134,0c0,-2.38169 0,-14.2386 0,-35.59134c-32.01365,0 -49.81963,0 -53.3767,0l-0.00001,0l0,-0.00001z"/>
   <path id="a8jrEKEPbc" d="m161.92372,176.86089c-7.2637,0 -13.14639,7.96991 -13.14639,17.79567c0,5.55728 0,19.37315 0,41.51979c53.44869,0 240.55231,0 267.27002,0c0,-24.89951 0,-38.74631 0,-41.51979c0,-9.82577 -5.88267,-17.79567 -13.14639,-17.79567c-24.08843,0 -216.88882,0 -240.97724,0z" stroke="null"/>
   <path id="svg_3" d="m303.58795,295.49182c0,0 0,0 0,0c0,-21.36305 0,-33.21996 0,-35.59134c0,0 0,0 0,0c32.01365,0 49.81963,0 53.3767,0c0,0 0,0 0,0c0,21.35274 0,33.20965 0,35.59134c0,0 0,0 0,0c-32.04457,0 -49.82994,0 -53.3767,0z" stroke="null"/>
   <path id="svg_7" d="m225.88847,350.82327c0,0 0,0 0,0c0,-21.36305 0,-33.21996 0,-35.59134c0,0 0,0 0,0c32.01365,0 49.81963,0 53.3767,0c0,0 0,0 0,0c0,21.35274 0,33.20965 0,35.59134c0,0 0,0 0,0c-32.04457,0 -49.82994,0 -53.3767,0z" stroke="null"/>
   <path id="svg_8" d="m148.77733,350.82327c0,0 0,0 0,0c0,-21.36305 0,-33.21996 0,-35.59134c0,0 0,0 0,0c32.03427,0 49.81963,0 53.3767,0c0,0 0,0 0,0c0,21.35274 0,33.20965 0,35.59134c0,0 0,0 0,0c-32.02396,0 -49.82994,0 -53.3767,0z" stroke="null"/>
   <path id="svg_10" d="m303.58795,350.82327c0,0 0,0 0,0c0,-21.36305 0,-33.21996 0,-35.59134c0,0 0,0 0,0c32.01365,0 49.81963,0 53.3767,0c0,0 0,0 0,0c0,21.35274 0,33.20965 0,35.59134c0,0 0,0 0,0c-32.04457,0 -49.82994,0 -53.3767,0z" stroke="null"/>
   <path id="svg_12" d="m225.88847,406.15472c0,0 0,0 0,0c0,-21.36305 0,-33.21996 0,-35.59134c0,0 0,0 0,0c32.01365,0 49.81963,0 53.3767,0c0,0 0,0 0,0c0,21.35274 0,33.20965 0,35.59134c0,0 0,0 0,0c-32.04457,0 -49.82994,0 -53.3767,0z" stroke="null"/>
   <path id="svg_15" d="m303.58795,406.15472c0,0 0,0 0,0c0,-21.36305 0,-33.21996 0,-35.59134c0,0 0,0 0,0c32.01365,0 49.81963,0 53.3767,0c0,0 0,0 0,0c0,21.35274 0,33.20965 0,35.59134c0,0 0,0 0,0c-32.04457,0 -49.82994,0 -53.3767,0z" stroke="null"/>
  </g>
  <line stroke-linecap="undefined" stroke-linejoin="undefined" id="svg_2" y2="12" x2="-375" y1="12" x1="-376" stroke="#000" fill="none"/>
  <rect transform="rotate(20 420.747 354.486)" stroke="null" id="svg_55" height="396.63304" width="210.04444" y="156.16978" x="315.72479" fill="#dcbce9"/>
  <g id="svg_53" stroke="null">
   <path id="svg_30" d="m436.47726,348.40412c0,0 0,0 0,0c0,-21.36305 0,-33.21996 0,-35.59134c0,0 0,0 0,0c32.05489,0 49.82994,0 53.38701,0c0,0 0,0 0,0c0,21.35274 0,33.20965 0,35.59134c0,0 0,0 0,0c-32.03427,0 -49.82994,0 -53.38701,0z" stroke="null"/>
   <path stroke="null" id="svg_31" d="m369.94826,229.77319c-3.46125,0 -6.26443,7.96991 -6.26443,17.79567c0,5.55728 0,19.37315 0,41.51979c25.46902,0 114.62641,0 127.35776,0c0,-24.89951 0,-38.74631 0,-41.51979c0,-9.82577 -2.80317,-17.79567 -6.26443,-17.79567c-11.47847,0 -103.35044,0 -114.8289,0z"/>
   <path id="svg_32" d="m436.47726,423.67346c0,3.55707 0,32.03427 0,35.59134c22.16726,0 34.02417,0 35.58103,0c9.82577,0 17.80598,-7.96991 17.80598,-17.80598c0,-1.17538 0,-7.11414 0,-17.78537c-3.55707,0 -21.33212,0 -53.38701,0l0,0.00001z" stroke="null"/>
   <path id="svg_34" d="m358.28166,348.40412c0,0 0,0 0,0c0,-21.36305 0,-33.21996 0,-35.59134c0,0 0,0 0,0c32.01365,0 49.81963,0 53.3767,0c0,0 0,0 0,0c0,21.35274 0,33.20965 0,35.59134c0,0 0,0 0,0c-32.04457,0 -49.82994,0 -53.3767,0z" stroke="null"/>
   <path id="svg_37" d="m436.47726,403.73557c0,0 0,0 0,0c0,-21.36305 0,-33.21996 0,-35.59134c0,0 0,0 0,0c32.05489,0 49.82994,0 53.38701,0c0,0 0,0 0,0c0,21.35274 0,33.20965 0,35.59134c0,0 0,0 0,0c-32.03427,0 -49.82994,0 -53.38701,0z" stroke="null"/>
   <path id="svg_39" d="m358.28166,403.73557c0,0 0,0 0,0c0,-21.36305 0,-33.21996 0,-35.59134c0,0 0,0 0,0c32.01365,0 49.81963,0 53.3767,0c0,0 0,0 0,0c0,21.35274 0,33.20965 0,35.59134c0,0 0,0 0,0c-32.04457,0 -49.82994,0 -53.3767,0z" stroke="null"/>
   <path id="svg_43" d="m280.58217,459.06702c0,0 0,0 0,0c0,-21.36305 0,-33.21996 0,-35.59134c0,0 0,0 0,0c32.01365,0 49.81963,0 53.3767,0c0,0 0,0 0,0c0,21.35274 0,33.20965 0,35.59134c0,0 0,0 0,0c-32.04457,0 -49.82994,0 -53.3767,0z" stroke="null"/>
   <path id="svg_44" d="m358.28166,459.06702c0,0 0,0 0,0c0,-21.36305 0,-33.21996 0,-35.59134c0,0 0,0 0,0c32.01365,0 49.81963,0 53.3767,0c0,0 0,0 0,0c0,21.35274 0,33.20965 0,35.59134c0,0 0,0 0,0c-32.04457,0 -49.82994,0 -53.3767,0z" stroke="null"/>
  </g>
  <rect transform="rotate(20 331.744 330.676)" stroke="null" id="svg_57" height="393.23665" width="116.94385" y="134.05767" x="273.27216" fill="#dcbce9"/>
  <rect transform="rotate(20 337.247 319.263)" stroke="null" id="svg_58" height="363.48322" width="19.49075" y="137.5212" x="327.50212" fill="#000000"/>
</svg>