<svg width="640" height="640" xmlns="http://www.w3.org/2000/svg" preserveAspectRatio="xMidYMid meet" version="1.1">
 <g>
  <title>Layer 1</title>
  <path id="bEP6Bzlc" d="m638.3,320.15c0,176.14 -143.01,319.15 -319.15,319.15c-176.14,0 -319.15,-143.01 -319.15,-319.15c0,-176.14 143.01,-319.15 319.15,-319.15c176.14,0 319.15,143.01 319.15,319.15z" fill="#fdc086"/>
  <g stroke="null">
   <title stroke="null">TensorFlow icon</title>
   <path stroke="null" d="m447.63731,319.99999l1.67944,78.93361l-52.06259,-30.22989l0,112.52238l-68.85698,40.30652l0,-403.06523l171.30272,99.08687l0,89.01024l-102.44575,-60.45978l0,45.34484l50.38315,28.55045zm-307.33724,-102.44575l171.30272,-99.08687l0,403.06523l-68.85698,-40.30652l0,-235.12138l-102.44575,60.45978l0,-89.01024z"/>
  </g>
 </g>

</svg>