<?xml version="1.0" encoding="UTF-8" standalone="no"?>

<!DOCTYPE svg PUBLIC "-//W3C//DTD SVG 1.1//EN" "http://www.w3.org/Graphics/SVG/1.1/DTD/svg11.dtd">

<svg version="1.1" xmlns="http://www.w3.org/2000/svg" xmlns:xlink="http://www.w3.org/1999/xlink" preserveAspectRatio="xMidYMid meet" viewBox="0 0 640 640" width="640" height="640">
<path fill="#dcbce9" d="M1.7 319.15C1.7 143.01 144.71 0 320.85 0C496.99 0 640 143.01 640 319.15C640 495.29 496.99 638.3 320.85 638.3C144.71 638.3 1.7 495.29 1.7 319.15Z" id="fFZMVTrxQ">
</path>
<path d="M245.03 444.67C214.1 444.67 196.91 444.67 193.48 444.67C193.48 444.67 193.48 444.67 193.48 444.67C193.48 424.05 193.48 412.6 193.48 410.3C193.48 410.3 193.48 410.3 193.48 410.3C224.4 410.3 241.6 410.3 245.03 410.3C245.03 410.3 245.03 410.3 245.03 410.3C245.03 430.92 245.03 442.38 245.03 444.67C245.03 444.67 245.03 444.67 245.03 444.67Z" id="aUKQqapau">
</path>
<path d="M245.03 387.39C214.1 387.39 196.91 387.39 193.48 387.39C193.48 387.39 193.48 387.39 193.48 387.39C193.48 366.77 193.48 355.32 193.48 353.03C193.48 353.03 193.48 353.03 193.48 353.03C224.4 353.03 241.6 353.03 245.03 353.03C245.03 353.03 245.03 353.03 245.03 353.03C245.03 373.64 245.03 385.1 245.03 387.39C245.03 387.39 245.03 387.39 245.03 387.39Z" id="bpEzj6bPC">
</path>
<path d="M245.03 330.11C214.1 330.11 196.91 330.11 193.48 330.11C193.48 330.11 193.48 330.11 193.48 330.11C193.48 309.5 193.48 298.03 193.48 295.75C193.48 295.75 193.48 295.75 193.48 295.75C224.4 295.75 241.6 295.75 245.03 295.75C245.03 295.75 245.03 295.75 245.03 295.75C245.03 316.37 245.03 327.82 245.03 330.11C245.03 330.11 245.03 330.11 245.03 330.11Z" id="i11L6C0KqM">
</path>
<path d="M245.03 272.84C214.1 272.84 196.91 272.84 193.48 272.84C193.48 272.84 193.48 272.84 193.48 272.84C193.48 252.22 193.48 240.76 193.48 238.46C193.48 238.46 193.48 238.46 193.48 238.46C224.4 238.46 241.6 238.46 245.03 238.46C245.03 238.46 245.03 238.46 245.03 238.46C245.03 259.09 245.03 270.54 245.03 272.84C245.03 272.84 245.03 272.84 245.03 272.84Z" id="dLC6rcVoY">
</path>
<path d="M170.56 330.11C139.64 330.11 122.46 330.11 119.02 330.11C119.02 330.11 119.02 330.11 119.02 330.11C119.02 309.5 119.02 298.03 119.02 295.75C119.02 295.75 119.02 295.75 119.02 295.75C149.95 295.75 167.13 295.75 170.56 295.75C170.56 295.75 170.56 295.75 170.56 295.75C170.56 316.37 170.56 327.82 170.56 330.11C170.56 330.11 170.56 330.11 170.56 330.11Z" id="bnKWIlQV2">
</path>
<path d="M170.56 272.84C139.64 272.84 122.46 272.84 119.02 272.84C119.02 272.84 119.02 272.84 119.02 272.84C119.02 252.22 119.02 240.76 119.02 238.46C119.02 238.46 119.02 238.46 119.02 238.46C149.95 238.46 167.13 238.46 170.56 238.46C170.56 238.46 170.56 238.46 170.56 238.46C170.56 259.09 170.56 270.54 170.56 272.84C170.56 272.84 170.56 272.84 170.56 272.84Z" id="amCnT02SD">
</path>
<path d="M170.56 387.39C139.64 387.39 122.46 387.39 119.02 387.39C119.02 387.39 119.02 387.39 119.02 387.39C119.02 366.77 119.02 355.32 119.02 353.03C119.02 353.03 119.02 353.03 119.02 353.03C149.95 353.03 167.13 353.03 170.56 353.03C170.56 353.03 170.56 353.03 170.56 353.03C170.56 373.64 170.56 385.1 170.56 387.39C170.56 387.39 170.56 387.39 170.56 387.39Z" id="a13Z8v2j3d">
</path>
<path d="M170.56 410.3C139.64 410.3 122.46 410.3 119.02 410.3C119.02 419.47 119.02 425.2 119.02 427.48C119.02 436.98 126.71 444.67 136.2 444.67C138.5 444.67 149.95 444.67 170.56 444.67C170.56 442.38 170.56 430.92 170.56 410.3Z" id="c6K1fVUSOT">
</path>
<path d="M451.23 158.28C419.73 158.28 167.7 158.28 136.2 158.28C126.71 158.28 119.02 165.98 119.02 175.47C119.02 180.8 119.02 194.18 119.02 215.56C188.9 215.56 433.48 215.56 468.42 215.56C468.42 191.5 468.42 178.14 468.42 175.47C468.42 165.98 460.72 158.28 451.23 158.28Z" id="c7CeFdTepN">
</path>
<path d="M324.4 263.93C323.18 264.34 322.26 265.35 321.97 266.6C321.67 267.85 322.05 269.16 322.95 270.08C324.4 271.52 331.61 278.73 344.6 291.71C344.43 292.92 343.56 298.97 342 309.87C331.1 311.42 325.05 312.29 323.84 312.46C310.86 299.48 303.65 292.26 302.2 290.82C301.3 289.92 299.98 289.55 298.73 289.83C297.48 290.13 296.47 291.05 296.07 292.27C290.79 307.97 294.41 326.02 306.91 338.52C318.83 350.44 335.77 354.28 350.94 350.05C358.44 357.55 418.41 417.52 425.91 425.02C423.2 437.95 426.86 451.97 436.89 462C452.69 477.79 478.34 477.79 494.13 462C509.93 446.2 509.93 420.56 494.13 404.76C484.09 394.73 470.09 391.06 457.15 393.78C452.16 388.78 427.17 363.79 382.18 318.81C382.44 297.4 378.6 282.72 370.65 274.78C358.15 262.28 340.11 258.67 324.4 263.93ZM477.88 445.75C471.06 452.58 459.97 452.58 453.14 445.75C446.31 438.93 446.31 427.83 453.14 421.01C459.97 414.18 471.06 414.18 477.88 421.01C484.71 427.83 484.71 438.93 477.88 445.75Z" id="aFxqfeY0">
</path>
</svg>