<svg width="640" height="640" xmlns="http://www.w3.org/2000/svg" stroke="null" style="vector-effect: non-scaling-stroke;" preserveAspectRatio="xMidYMid meet" version="1.1">

 <g stroke="null">
  <title stroke="null">Layer 1</title>
  <path stroke="null" style="vector-effect: non-scaling-stroke;" id="a4eeWTOei" d="m638.3,319.15c0,176.14 -143.01,319.15 -319.15,319.15c-176.14,0 -319.15,-143.01 -319.15,-319.15c0,-176.14 143.01,-319.15 319.15,-319.15c176.14,0 319.15,143.01 319.15,319.15z" fill="#7ddd9c"/>
  <path stroke="null" style="vector-effect: non-scaling-stroke;" id="dht8F2SLF" d="m192.13312,331.45632c4.39404,0 39.56372,0 43.95776,0c3.3627,0 3.3627,0 3.3627,-3.81337c0,-35.67235 0,-64.25529 0,-71.38803c0,-4.15137 0,-4.15137 3.58804,-4.15137c3.58804,0 32.28365,0 35.87168,0c0.93601,0 1.88069,0 3.4667,-0.19934c-0.93601,-1.13534 -1.49935,-1.84602 -2.07135,-2.49602c-5.20005,-5.67672 -46.77446,-51.1685 -51.97451,-56.84522c-4.07337,-4.47204 -8.22475,-8.87475 -12.21145,-13.48547c-1.56002,-1.78535 -2.52202,-1.72468 -4.08204,0c-12.01212,13.31213 -24.07624,26.57226 -36.19235,39.74572c-17.42017,19.14485 -27.09226,29.77896 -29.03362,31.90231c-0.21667,0.13867 -0.364,0.45067 -0.94468,1.19601c1.47335,0 2.46136,0.22534 3.47537,0.22534c12.13345,0 24.27557,0.12133 36.38302,0c2.60003,0 3.08536,0.97068 3.08536,3.70937c0,23.89423 0,47.76247 0,71.62203c-0.00867,3.97804 -0.00867,3.97804 3.31937,3.97804z"/>
  <path stroke="null" style="vector-effect: non-scaling-stroke;" id="c3aqiZJ9XS" d="m146.56,123.4c0,0 0,0 0,0c0,25.23 0,39.23754 0,42.05c0,0 0,0 0,0c81.28195,0 126.45676,0 135.49,0c0,0 0,0 0,0c0,-25.23 0,-39.24667 0,-42.05c0,0 0,0 0,0c-81.29916,0 -126.46536,0 -135.49,0z"/>
  <path stroke="null" style="vector-effect: non-scaling-stroke;" id="b6z1qSYr5" d="m376.72024,500.66937c0,0 0,0 0,0c0,-18.14634 0,-28.21791 0,-30.23223c0,0 0,0 0,0c27.19324,0 42.31811,0 45.33958,0c0,0 0,0 0,0c0,18.13758 0,28.20916 0,30.23223c0,0 0,0 0,0c-27.21951,0 -42.32687,0 -45.33958,0z"/>
  <path stroke="null" style="vector-effect: non-scaling-stroke;" id="c2AnAF0HgI" d="m376.72024,449.88238c0,0 0,0 0,0c0,-18.12883 0,-28.2004 0,-30.23223c0,0 0,0 0,0c27.19324,0 42.31811,0 45.33958,0c0,0 0,0 0,0c0,18.14634 0,28.20916 0,30.23223c0,0 0,0 0,0c-27.21951,0 -42.32687,0 -45.33958,0z"/>
  <path stroke="null" style="vector-effect: non-scaling-stroke;" id="b1GEdEKhtA" d="m376.72024,399.49825c0,0 0,0 0,0c0,-18.14634 0,-28.21791 0,-30.23223c0,0 0,0 0,0c27.19324,0 42.31811,0 45.33958,0c0,0 0,0 0,0c0,18.13758 0,28.20916 0,30.23223c0,0 0,0 0,0c-27.21951,0 -42.32687,0 -45.33958,0z"/>
  <path stroke="null" style="vector-effect: non-scaling-stroke;" id="b1dLYvItOc" d="m311.22,449.88238c0,0 0,0 0,0c0,-18.12883 0,-28.2004 0,-30.23223c0,0 0,0 0,0c27.21076,0 42.31811,0 45.33958,0c0,0 0,0 0,0c0,18.14634 0,28.20916 0,30.23223c0,0 0,0 0,0c-27.202,0 -42.32687,0 -45.33958,0z"/>
  <path stroke="null" style="vector-effect: non-scaling-stroke;" id="eltAYtqzm" d="m311.22,399.49825c0,0 0,0 0,0c0,-18.14634 0,-28.21791 0,-30.23223c0,0 0,0 0,0c27.21076,0 42.31811,0 45.33958,0c0,0 0,0 0,0c0,18.13758 0,28.20916 0,30.23223c0,0 0,0 0,0c-27.202,0 -42.32687,0 -45.33958,0z"/>
  <path stroke="null" style="vector-effect: non-scaling-stroke;" id="ft2Hr2taP" d="m311.22,470.43714c0,8.05726 0,13.09304 0,15.10736c0,8.35502 6.76985,15.12487 15.10736,15.12487c2.02307,0 12.1034,0 30.23223,0c0,-2.02307 0,-12.09464 0,-30.23223c-27.19324,0 -42.31811,0 -45.33958,0z"/>
  <path stroke="null" style="vector-effect: non-scaling-stroke;" id="a2ZRL8pld" d="m442.14166,449.88238c0,0 0,0 0,0c0,-18.12883 0,-28.2004 0,-30.23223c0,0 0,0 0,0c27.22827,0 42.32687,0 45.34834,0c0,0 0,0 0,0c0,18.14634 0,28.20916 0,30.23223c0,0 0,0 0,0c-27.21076,0 -42.32687,0 -45.34834,0z"/>
  <path stroke="null" style="vector-effect: non-scaling-stroke;" id="c3X5cTAjvM" d="m442.14166,399.49825c0,0 0,0 0,0c0,-18.14634 0,-28.21791 0,-30.23223c0,0 0,0 0,0c27.22827,0 42.32687,0 45.34834,0c0,0 0,0 0,0c0,18.13758 0,28.20916 0,30.23223c0,0 0,0 0,0c-27.21076,0 -42.32687,0 -45.34834,0z"/>
  <path stroke="null" style="vector-effect: non-scaling-stroke;" id="a8jrEKEPbc" d="m319.89031,298.73c-4.79056,0 -8.67031,6.76985 -8.67031,15.11611c0,4.7205 0,16.45607 0,35.26801c35.2505,0 158.64913,0 176.27,0c0,-21.1503 0,-32.91214 0,-35.26801c0,-8.34627 -3.87974,-15.11611 -8.67031,-15.11611c-15.88681,0 -143.04258,0 -158.92938,0z"/>
  <path stroke="null" id="cD0pYnSfx" d="m442.14166,470.43714c0,3.02147 0,27.21076 0,30.23223c18.82946,0 28.90103,0 30.22347,0c8.34627,0 15.12487,-6.76985 15.12487,-15.12487c0,-0.9984 0,-6.04294 0,-15.10736c-3.02147,0 -18.12007,0 -45.34834,0z"/>
 </g>
</svg>