<svg width="639.9999999999999" height="639.9999999999999" xmlns="http://www.w3.org/2000/svg" version="1.1" preserveAspectRatio="xMidYMid meet">
 <g>
  <title>Layer 1</title>
  <metadata id="svg_17" stroke="null">image/svg+xml</metadata>
  <path fill="#fbb4ae" d="m2.85001,322.00982c0,-176.14 143.01,-319.15 319.15,-319.15c176.14,0 319.15,143.01 319.15,319.15c0,176.14 -143.01,319.15 -319.15,319.15c-176.14,0 -319.15,-143.01 -319.15,-319.15z" id="svg_20"/>
  <path stroke="null" d="m214.59634,364.68046l0,65.16159c0,0.93545 -0.49931,1.80074 -1.30963,2.26848l-59.59975,34.40979c-0.64195,0.36834 -1.40785,0.44785 -2.1118,0.221c-0.70394,-0.22684 -1.28039,-0.73902 -1.58677,-1.41255c-20.63391,-45.80291 11.70591,-99.87074 61.81192,-103.25934c0.72028,-0.03625 1.42423,0.221 1.95158,0.71327c0.52736,0.49344 0.83137,1.17868 0.84425,1.89899l0.00021,-0.00125l0,0l0,0.00001zm18.51154,-13.0904l0,0.00117c-0.72028,-0.03625 -1.42423,0.221 -1.95158,0.71445c-0.52618,0.49228 -0.83137,1.17751 -0.84425,1.89779l0,66.5745c0,0.93662 0.49931,1.80191 1.30963,2.26964l59.08787,34.11644c0.63378,0.36951 1.39264,0.45602 2.09308,0.23737c0.70041,-0.21867 1.27573,-0.72149 1.5856,-1.38681c21.72713,-45.91664 -10.70521,-101.00526 -61.27909,-104.42379l-0.00129,-0.00078l0,0l0.00001,0.00001zm44.62648,120.0257l-60.42894,-34.89774c-0.81032,-0.4689 -1.80894,-0.4689 -2.61928,0l-58.64783,33.84702c-0.61506,0.35898 -1.05825,0.95066 -1.22897,1.64057c-0.17072,0.69108 -0.05379,1.4219 0.32272,2.02525c32.45208,47.73967 93.67728,43.80926 123.48613,1.0863c0.38939,-0.60337 0.51568,-1.34005 0.34964,-2.04046c-0.16721,-0.69923 -0.61156,-1.2991 -1.23247,-1.66278l-0.00101,0.00182l0,0l0.00001,0.00001z" id="svg_1"/>
  <path stroke="null" d="m471.64725,448.21227l0,-56.60936c0,-1.64533 1.3341,-2.97943 2.97943,-2.97943l23.83552,0c0.79009,0 1.54825,0.31391 2.10689,0.87254s0.87254,1.31681 0.87254,2.10689l0,56.60936l-29.79439,0l0.00001,0zm-8.93831,0l0,-80.44486c0,-0.79009 -0.31391,-1.54825 -0.87254,-2.10689s-1.31681,-0.87254 -2.10689,-0.87254l-23.83552,0c-1.64533,0 -2.97943,1.3341 -2.97943,2.97943l0,80.44486l29.79439,0l-0.00001,0zm50.65048,5.95888l-169.82805,0l0,-169.82805c-0.05586,-1.60542 -1.37265,-2.87834 -2.97943,-2.87834s-2.92357,1.27292 -2.97943,2.87834l0,172.80749c0,0.79009 0.31391,1.54825 0.87254,2.10689s1.31681,0.87254 2.10689,0.87254l172.80749,0c1.60542,-0.05586 2.87834,-1.37265 2.87834,-2.97943s-1.27292,-2.92357 -2.87834,-2.97943zm-128.1159,-5.95888l0,-128.1159c0,-0.79009 -0.31391,-1.54825 -0.87254,-2.10689s-1.31681,-0.87254 -2.10689,-0.87254l-23.83552,0c-1.64533,0 -2.97943,1.3341 -2.97943,2.97943l0,128.1159l29.79439,0l-0.00001,0zm38.73272,0l0,-104.28039c0,-0.79009 -0.31391,-1.54825 -0.87254,-2.10689s-1.31681,-0.87254 -2.10689,-0.87254l-23.83552,0c-1.64533,0 -2.97943,1.3341 -2.97943,2.97943l0,104.28039l29.79439,0l-0.00001,0z" id="svg_22"/>
  <g stroke="null" id="svg_72">
   <path stroke="null" d="m419.82792,249.73514c-30.81064,0 -47.9343,0 -51.35106,0c0,0 0,0 0,0c0,-20.54043 0,-31.94624 0,-34.2274c0,0 0,0 0,0c30.80068,0 47.9343,0 51.35106,0c0,0 0,0 0,0c0,20.53047 0,31.94624 0,34.2274c0,0 0,0 0,0z" id="svg_68"/>
   <path stroke="null" d="m272.16438,306.35369c-30.81064,0 -47.9343,0 -51.35106,0c0,0 0,0 0,0c0,-20.53047 0,-31.9562 0,-34.2274c0,0 0,0 0,0c30.80068,0 47.9343,0 51.35106,0c0,0 0,0 0,0c0,20.54043 0,31.94624 0,34.2274c0,0 0,0 0,0z" id="svg_67"/>
   <path stroke="null" d="m272.16438,249.30469c-30.81064,0 -47.9343,0 -51.35106,0c0,0 0,0 0,0c0,-20.54043 0,-31.9562 0,-34.24733c0,0 0,0 0,0c30.80068,0 47.9343,0 51.35106,0c0,0 0,0 0,0c0,20.55038 0,31.9562 0,34.24733c0,0 0,0 0,0z" id="svg_66"/>
   <path stroke="null" d="m197.98176,306.35369c-30.80068,0 -47.91437,0 -51.3411,0c0,0 0,0 0,0c0,-20.53047 0,-31.9562 0,-34.2274c0,0 0,0 0,0c30.81064,0 47.92434,0 51.3411,0c0,0 0,0 0,0c0,20.54043 0,31.94624 0,34.2274c0,0 0,0 0,0z" id="svg_65"/>
   <path stroke="null" d="m197.98176,249.30469c-30.80068,0 -47.91437,0 -51.3411,0c0,0 0,0 0,0c0,-20.54043 0,-31.9562 0,-34.24733c0,0 0,0 0,0c30.81064,0 47.92434,0 51.3411,0c0,0 0,0 0,0c0,20.55038 0,31.9562 0,34.24733c0,0 0,0 0,0z" id="svg_64"/>
   <path stroke="null" d="m345.6453,249.73514c-30.80068,0 -47.91437,0 -51.3411,0c0,0 0,0 0,0c0,-20.54043 0,-31.94624 0,-34.2274c0,0 0,0 0,0c30.81064,0 47.92434,0 51.3411,0c0,0 0,0 0,0c0,20.53047 0,31.94624 0,34.2274c0,0 0,0 0,0z" id="svg_63"/>
   <path stroke="null" d="m478.74057,135.18679c-31.37844,0 -282.43583,0 -313.81428,0c-9.45337,0 -17.11371,7.67028 -17.11371,17.12366c0,5.30943 0,18.63779 0,39.93529c69.61032,0 313.24647,0 348.05165,0c0,-23.96715 0,-37.2756 0,-39.93529c0,-9.45337 -7.67028,-17.12366 -17.12366,-17.12366z" id="svg_61"/>
   <path stroke="null" d="m490.1439,250.90708c-30.81064,0 -47.9343,0 -51.35106,0c0,0 0,0 0,0c0,-20.54043 0,-31.94624 0,-34.2274c0,0 0,0 0,0c30.80068,0 47.9343,0 51.35106,0c0,0 0,0 0,0c0,20.53047 0,31.94624 0,34.2274c0,0 0,0 0,0z" id="svg_71"/>
  </g>
 </g>

</svg>